<svg width="375" height="144" viewBox="0 0 375 144" fill="none" xmlns="http://www.w3.org/2000/svg">
<rect width="375" height="144" fill="#3C50A5" fill-opacity="0.05"/>
<circle cx="236" cy="108" r="20" fill="#FF5777"/>
<path d="M336.561 71.53V68.94H340.397V68.002H332.921V66.112H339.991V65.202H332.921V63.438H340.271V62.5H331.759V68.94H335.413V71.53H330.289V72.468H341.699V71.53H336.561Z" fill="#333333"/>
<path d="M86.9385 67.456V68.212H89.4305V68.87H90.5785V61.492H89.4305V67.456H86.9385ZM84.3205 62.528C85.5525 62.528 86.3365 62.948 86.3365 63.62C86.3365 64.264 85.5525 64.698 84.3205 64.698C83.1025 64.698 82.3045 64.264 82.3045 63.62C82.3045 62.948 83.1025 62.528 84.3205 62.528ZM84.3205 65.482C86.1825 65.482 87.4145 64.768 87.4145 63.62C87.4145 62.444 86.1825 61.73 84.3205 61.73C82.4585 61.73 81.2265 62.444 81.2265 63.62C81.2265 64.768 82.4585 65.482 84.3205 65.482ZM83.6765 68.912H84.8245V66.98C86.0425 66.91 87.2885 66.812 88.5065 66.644L88.4365 65.888C85.7485 66.196 82.6825 66.21 80.2605 66.21L80.4005 67.078C81.4085 67.078 82.5145 67.064 83.6765 67.036V68.912ZM83.3265 73.042V71.95H90.5785V69.332H82.1645V70.158H89.4585V71.166H82.1925V73.896H91.0125V73.042H83.3265Z" fill="#333333"/>
<path d="M137.877 63.004H134.713V61.492H133.565V63.004H130.373V63.914H137.877V63.004ZM132.263 66.98C132.263 66.112 133.019 65.538 134.139 65.538C135.259 65.538 136.015 66.112 136.015 66.98C136.015 67.848 135.259 68.408 134.139 68.408C133.019 68.408 132.263 67.848 132.263 66.98ZM134.713 69.276C136.155 69.094 137.107 68.226 137.107 66.98C137.107 65.566 135.889 64.656 134.139 64.656C132.389 64.656 131.171 65.566 131.171 66.98C131.171 68.226 132.123 69.094 133.565 69.276V70.648C132.347 70.69 131.171 70.69 130.163 70.69L130.317 71.656C132.515 71.656 135.469 71.628 138.157 71.152L138.087 70.298C137.009 70.466 135.847 70.55 134.713 70.606V69.276ZM141.937 66.812H139.977V61.478H138.829V74.036H139.977V67.778H141.937V66.812Z" fill="#333333"/>
<path d="M191.111 66.266C188.829 65.93 186.589 64.376 186.589 62.626V61.926H185.385V62.626C185.385 64.418 183.173 65.93 180.891 66.266L181.353 67.19C183.313 66.854 185.203 65.776 185.987 64.25C186.799 65.762 188.689 66.854 190.635 67.19L191.111 66.266ZM191.657 68.548H180.317V69.5H185.385V74.05H186.533V69.5H191.671L191.657 68.548Z" fill="#333333"/>
<path d="M231.563 70.998H239.109V74.05H240.257V70.074H231.563V70.998ZM232.879 62.906H239.067V65.342H232.879V62.906ZM236.561 67.848V66.252H240.201V61.996H231.759V66.252H235.413V67.848H230.289V68.772H241.657V67.848H236.561Z" fill="#333333"/>
<path d="M282.823 70.326H289.137V72.944H282.823V70.326ZM281.703 73.868H290.271V69.402H281.703V73.868ZM289.893 66.77C290.229 65.202 290.229 64.054 290.229 63.074V62.15H281.745V63.074H289.095C289.095 64.054 289.095 65.202 288.731 66.77H280.289V67.694H291.699V66.77H289.893Z" fill="#333333"/>
<path d="M40.6065 61.478H39.4585V67.918H40.6065V61.478ZM31.7025 64.726C31.7025 63.634 32.6125 62.864 33.8305 62.864C35.0625 62.864 35.9585 63.634 35.9585 64.726C35.9585 65.804 35.0625 66.574 33.8305 66.574C32.6125 66.574 31.7025 65.804 31.7025 64.726ZM37.0785 64.726C37.0785 63.06 35.7065 61.926 33.8305 61.926C31.9545 61.926 30.5965 63.06 30.5965 64.726C30.5965 66.378 31.9545 67.498 33.8305 67.498C35.7065 67.498 37.0785 66.378 37.0785 64.726ZM33.6345 72.958V71.572H40.6065V68.534H32.4725V69.444H39.4725V70.718H32.5005V73.868H41.0265V72.958H33.6345Z" fill="#333333"/>
<path d="M25.8627 117H34.7627V114.62H31.9827V102.18H29.8027C28.8627 102.78 27.8427 103.16 26.3627 103.44V105.26H29.0427V114.62H25.8627V117ZM37.64 117H46.54V114.62H43.76V102.18H41.58C40.64 102.78 39.62 103.16 38.14 103.44V105.26H40.82V114.62H37.64V117Z" fill="#333333"/>
<path d="M75.8627 117H84.7627V114.62H81.9827V102.18H79.8027C78.8627 102.78 77.8427 103.16 76.3627 103.44V105.26H79.0427V114.62H75.8627V117ZM86.86 117H96.78V114.52H93.58C92.88 114.52 91.9 114.6 91.16 114.68C93.86 112.04 96.08 109.16 96.08 106.48C96.08 103.72 94.22 101.92 91.42 101.92C89.4 101.92 88.08 102.7 86.72 104.16L88.32 105.76C89.08 104.94 89.96 104.24 91.04 104.24C92.46 104.24 93.26 105.14 93.26 106.64C93.26 108.92 90.88 111.7 86.86 115.3V117Z" fill="#333333"/>
<path d="M125.863 117H134.763V114.62H131.983V102.18H129.803C128.863 102.78 127.843 103.16 126.363 103.44V105.26H129.043V114.62H125.863V117ZM141.48 117.28C144.3 117.28 146.68 115.7 146.68 112.98C146.68 111.04 145.4 109.8 143.74 109.34V109.24C145.3 108.62 146.2 107.46 146.2 105.86C146.2 103.34 144.26 101.92 141.4 101.92C139.66 101.92 138.24 102.62 136.96 103.74L138.46 105.54C139.34 104.72 140.2 104.24 141.26 104.24C142.52 104.24 143.24 104.92 143.24 106.08C143.24 107.4 142.36 108.34 139.64 108.34V110.44C142.86 110.44 143.72 111.36 143.72 112.8C143.72 114.14 142.7 114.88 141.2 114.88C139.86 114.88 138.78 114.22 137.9 113.36L136.52 115.22C137.56 116.4 139.14 117.28 141.48 117.28Z" fill="black"/>
<path d="M175.863 117H184.763V114.62H181.983V102.18H179.803C178.863 102.78 177.843 103.16 176.363 103.44V105.26H179.043V114.62H175.863V117ZM189.28 110.92L191.58 107.24C192 106.44 192.4 105.62 192.76 104.82H192.84C192.8 105.7 192.74 107.04 192.74 107.9V110.92H189.28ZM192.74 117H195.48V113.16H197.22V110.92H195.48V102.18H191.94L186.42 111.16V113.16H192.74V117Z" fill="black"/>
<path d="M225.863 117H234.763V114.62H231.983V102.18H229.803C228.863 102.78 227.843 103.16 226.363 103.44V105.26H229.043V114.62H225.863V117ZM241.52 117.28C244.26 117.28 246.7 115.38 246.7 112.08C246.7 108.86 244.62 107.38 242.14 107.38C241.46 107.38 240.96 107.52 240.36 107.8L240.64 104.66H246.02V102.18H238.1L237.7 109.38L239.04 110.26C239.9 109.7 240.38 109.48 241.26 109.48C242.76 109.48 243.76 110.44 243.76 112.16C243.76 113.9 242.68 114.88 241.14 114.88C239.76 114.88 238.72 114.2 237.88 113.38L236.52 115.26C237.62 116.36 239.18 117.28 241.52 117.28Z" fill="white"/>
<path d="M275.863 117H284.763V114.62H281.983V102.18H279.803C278.863 102.78 277.843 103.16 276.363 103.44V105.26H279.043V114.62H275.863V117ZM292.16 109.76C293.44 109.76 294.28 110.58 294.28 112.32C294.28 114.14 293.36 115.06 292.26 115.06C291.02 115.06 290.02 114.02 289.74 111.32C290.42 110.2 291.36 109.76 292.16 109.76ZM292.32 117.28C294.84 117.28 296.96 115.36 296.96 112.32C296.96 109.16 295.2 107.68 292.72 107.68C291.76 107.68 290.48 108.28 289.68 109.28C289.8 105.56 291.2 104.28 292.9 104.28C293.76 104.28 294.66 104.76 295.18 105.36L296.74 103.6C295.84 102.68 294.54 101.92 292.72 101.92C289.74 101.92 287 104.28 287 109.8C287 115.02 289.5 117.28 292.32 117.28Z" fill="#FF5777"/>
<path d="M325.863 117H334.763V114.62H331.983V102.18H329.803C328.863 102.78 327.843 103.16 326.363 103.44V105.26H329.043V114.62H325.863V117ZM339.72 117H342.7C342.94 111.2 343.4 108.18 346.84 103.98V102.18H337V104.66H343.66C340.84 108.58 339.98 111.86 339.72 117Z" fill="black"/>
<path d="M51.9995 35H59.1195V33.096H56.8955V23.144H55.1515C54.3995 23.624 53.5835 23.928 52.3995 24.152V25.608H54.5435V33.096H51.9995V35ZM68.4774 28.456V29.736H71.0854V30.168H73.1974V21.64H71.0854V28.456H68.4774ZM65.4854 23.24C66.5414 23.24 67.1974 23.512 67.1974 24.072C67.1974 24.616 66.5414 24.888 65.4854 24.888C64.4294 24.888 63.7574 24.616 63.7574 24.072C63.7574 23.512 64.4294 23.24 65.4854 23.24ZM65.4854 26.248C67.6774 26.248 69.1654 25.4 69.1654 24.072C69.1654 22.712 67.6774 21.864 65.4854 21.864C63.2774 21.864 61.8054 22.712 61.8054 24.072C61.8054 25.4 63.2774 26.248 65.4854 26.248ZM64.3654 30.184H66.4774V28.152C67.7734 28.088 69.0694 27.976 70.3494 27.8L70.2214 26.504C67.1334 26.824 63.6294 26.824 60.8134 26.824L61.0214 28.264C62.0614 28.264 63.1974 28.264 64.3654 28.248V30.184ZM65.0054 34.824V34.072H73.1974V30.616H62.9094V32.04H71.1174V32.744H62.9254V36.264H73.5334V34.824H65.0054ZM82.8371 35.224C85.0931 35.224 86.9971 33.96 86.9971 31.784C86.9971 30.232 85.9731 29.24 84.6451 28.872V28.792C85.8931 28.296 86.6131 27.368 86.6131 26.088C86.6131 24.072 85.0611 22.936 82.7731 22.936C81.3811 22.936 80.2451 23.496 79.2211 24.392L80.4211 25.832C81.1251 25.176 81.8131 24.792 82.6611 24.792C83.6691 24.792 84.2451 25.336 84.2451 26.264C84.2451 27.32 83.5411 28.072 81.3651 28.072V29.752C83.9411 29.752 84.6291 30.488 84.6291 31.64C84.6291 32.712 83.8131 33.304 82.6131 33.304C81.5411 33.304 80.6771 32.776 79.9731 32.088L78.8691 33.576C79.7011 34.52 80.9651 35.224 82.8371 35.224ZM89.971 28.936C92.547 28.584 94.355 27.48 95.235 25.976C96.115 27.48 97.923 28.584 100.499 28.936L101.251 27.288C98.259 26.92 96.707 25.48 96.499 24.072H100.675V22.392H89.747V24.072H93.987C93.779 25.48 92.211 26.92 89.203 27.288L89.971 28.936ZM101.891 29.784H88.579V31.464H94.131V36.408H96.243V31.464H101.891V29.784ZM108.61 25.72H111.538V24.04H108.626V21.992H106.514V24.04H103.522V25.72H106.514V26.232C106.514 28.44 105.41 30.936 103.026 32.04L104.162 33.656C105.81 32.92 106.946 31.432 107.586 29.672C108.194 31.304 109.266 32.68 110.834 33.4L111.954 31.8C109.65 30.696 108.61 28.312 108.61 26.232V25.72ZM116.962 27.368H114.818V21.656H112.706V36.376H114.818V29.112H116.962V27.368Z" fill="#333333"/>
<path d="M137 34L143 28L137 22" stroke="#333333" stroke-width="2" stroke-linecap="round" stroke-linejoin="round"/>
<path d="M31 22L25 28L31 34" stroke="#333333" stroke-width="2" stroke-linecap="round" stroke-linejoin="round"/>
</svg>
