<svg width="375" height="480" viewBox="0 0 375 480" fill="none" xmlns="http://www.w3.org/2000/svg">
<rect width="375" height="480" fill="#3C50A5"/>
<path d="M29.472 103.4H34.848V99.368H24.384V97.864H34.208V93.928H24.384V92.36H34.816V88.328H19.232V103.4H24.288V106.76C21.728 106.856 19.296 106.856 17.248 106.856L17.824 110.984C22.912 110.952 29.856 110.888 36.224 109.608L35.872 105.864C33.792 106.184 31.648 106.376 29.472 106.536V103.4ZM37.344 85.96V116.136H42.528V85.96H37.344ZM55.0375 105.256H49.8855V115.592H71.5815V111.528H55.0375V105.256ZM70.1415 99.016C70.7815 95.592 70.7815 92.84 70.7815 90.312V87.592H49.8215V91.656H65.6615C65.6295 93.832 65.5335 96.136 64.9575 99.016H46.5575V103.08H73.7575V99.016H70.1415ZM109.196 88.968H99.4995V86.056H94.3155V88.968H84.5235V92.968H109.196V88.968ZM102.124 99.08C102.124 100.136 100.588 100.52 96.9075 100.52C93.2595 100.52 91.6915 100.136 91.6915 99.08C91.6915 97.992 93.2595 97.64 96.9075 97.64C100.588 97.64 102.124 97.992 102.124 99.08ZM86.3155 99.08C86.3155 102.44 90.2835 104.328 96.9075 104.328C103.532 104.328 107.5 102.44 107.5 99.08C107.5 95.688 103.532 93.8 96.9075 93.8C90.2835 93.8 86.3155 95.688 86.3155 99.08ZM110.508 105.416H83.3395V109.48H94.3155V116.04H99.4995V109.48H110.508V105.416ZM30.72 128.504C34.08 128.504 36.096 129.208 36.096 130.776C36.096 132.344 34.08 133.048 30.72 133.048C27.36 133.048 25.344 132.344 25.344 130.776C25.344 129.208 27.36 128.504 30.72 128.504ZM30.72 137.112C37.248 137.112 41.664 134.648 41.664 130.776C41.664 126.936 37.248 124.472 30.72 124.472C24.192 124.472 19.776 126.936 19.776 130.776C19.776 134.648 24.192 137.112 30.72 137.112ZM25.376 144.472H20.128V153.592H41.376V149.528H25.376V144.472ZM17.12 138.264V142.296H28.32V146.936H33.6V142.296H44.32V138.264H17.12ZM60.0615 150.232C56.4135 150.232 54.8135 149.784 54.8135 148.536C54.8135 147.288 56.4135 146.808 60.0615 146.808C63.7095 146.808 65.3415 147.288 65.3415 148.536C65.3415 149.784 63.7095 150.232 60.0615 150.232ZM60.0615 142.904C53.5655 142.904 49.5655 144.952 49.5655 148.536C49.5655 152.088 53.5655 154.136 60.0615 154.136C66.5895 154.136 70.5895 152.088 70.5895 148.536C70.5895 144.952 66.5895 142.904 60.0615 142.904ZM62.7815 137.752V135.8H70.7815V131.768H54.9415V129.272H70.6535V125.24H49.7895V135.8H57.5975V137.752H46.5895V141.816H73.8215V137.752H62.7815ZM91.6595 143C89.8355 143 88.6835 141.048 88.6835 136.792C88.6835 132.6 89.8355 130.648 91.6595 130.648C93.4835 130.648 94.6355 132.6 94.6355 136.792C94.6355 141.048 93.4835 143 91.6595 143ZM103.628 123.928V134.456H99.4355C98.7315 129.144 95.6595 125.944 91.6595 125.944C87.1155 125.944 83.7555 130.104 83.7555 136.792C83.7555 143.544 87.1155 147.704 91.6595 147.704C95.8195 147.704 98.9555 144.248 99.4995 138.584H103.628V154.136H108.812V123.928H103.628ZM117.673 131.544H119.337V127.48H113.065V147.096H114.473C116.201 147.096 117.609 147.064 119.593 146.648L119.241 142.488C118.665 142.616 118.185 142.68 117.673 142.744V131.544ZM124.937 131.544H126.857V127.48H120.329V147.096H121.801C123.657 147.096 125.257 147.064 127.401 146.648L127.081 142.488C126.281 142.648 125.609 142.712 124.937 142.776V131.544ZM134.313 123.992V135.288H132.873V124.376H128.169V152.728H132.873V139.384H134.313V154.008H139.113V123.992H134.313ZM152.967 141.496C153.863 141.656 154.823 141.72 155.783 141.72C156.743 141.72 157.703 141.656 158.599 141.496V146.584H152.967V141.496ZM155.783 129.24C159.623 129.24 162.055 130.712 162.055 133.496C162.055 136.248 159.623 137.752 155.783 137.752C151.943 137.752 149.51 136.248 149.51 133.496C149.51 130.712 151.943 129.24 155.783 129.24ZM163.751 146.584V139.608C165.895 138.168 167.175 136.056 167.175 133.496C167.175 128.472 162.311 125.24 155.783 125.24C149.255 125.24 144.391 128.472 144.391 133.496C144.391 136.056 145.671 138.168 147.815 139.608V146.584H142.215V150.712H169.383V146.584H163.751ZM176.132 142.36H181.092C180.676 138.136 186.148 136.824 186.148 132.376C186.148 127.928 183.076 126.04 179.076 126.04C176.196 126.04 173.764 127.384 172.004 129.4L175.14 132.28C176.132 131.288 177.06 130.616 178.372 130.616C179.684 130.616 180.676 131.32 180.676 132.76C180.676 135.384 175.364 137.432 176.132 142.36ZM178.596 151.448C180.548 151.448 181.988 149.88 181.988 147.896C181.988 145.912 180.548 144.376 178.596 144.376C176.612 144.376 175.204 145.912 175.204 147.896C175.204 149.88 176.612 151.448 178.596 151.448Z" fill="white"/>
<path d="M27.41 172.436H26.038V179.478H27.41V172.436ZM22.496 175.642V176.79H23.714V179.38H25.072V172.646H23.714V175.642H22.496ZM22.776 173.556H20.424V172.394H18.996V173.556H16.644V174.662H22.776V173.556ZM18.366 177.168C18.366 176.51 18.912 176.09 19.724 176.09C20.522 176.09 21.082 176.51 21.082 177.168C21.082 177.826 20.522 178.246 19.724 178.246C18.912 178.246 18.366 177.826 18.366 177.168ZM22.342 177.168C22.342 175.922 21.25 175.068 19.724 175.068C18.198 175.068 17.092 175.922 17.092 177.168C17.092 178.414 18.198 179.268 19.724 179.268C21.25 179.268 22.342 178.414 22.342 177.168ZM20.424 183.888V182.936H27.41V179.982H18.968V181.046H25.996V181.928H18.996V184.966H27.83V183.888H20.424ZM40.5549 178.61C38.0629 178.162 36.0329 176.216 36.0329 174.2V173.248H34.5069V174.2C34.5069 176.202 32.4769 178.148 29.9849 178.61L30.6009 179.8C32.6589 179.38 34.4369 178.064 35.2629 176.328C36.0889 178.064 37.8669 179.38 39.9249 179.8L40.5549 178.61ZM29.5929 182.264V183.454H41.0449V182.264H29.5929ZM49.8918 178.386C47.9598 177.77 46.9098 176.3 46.9098 174.732V174.494H49.5558V173.332H42.7658V174.494H45.4538V174.746C45.4538 176.468 44.3478 178.092 42.3598 178.778L43.0878 179.912C44.5998 179.394 45.6638 178.316 46.2238 176.972C46.7698 178.148 47.7778 179.058 49.1918 179.506L49.8918 178.386ZM48.2678 183.944C46.5038 183.944 45.4818 183.496 45.4818 182.684C45.4818 181.858 46.5038 181.424 48.2678 181.424C50.0318 181.424 51.0538 181.858 51.0538 182.684C51.0538 183.496 50.0318 183.944 48.2678 183.944ZM48.2678 180.29C45.6638 180.29 44.0538 181.172 44.0538 182.684C44.0538 184.182 45.6638 185.078 48.2678 185.078C50.8718 185.078 52.4818 184.182 52.4818 182.684C52.4818 181.172 50.8718 180.29 48.2678 180.29ZM52.3418 175.516V172.436H50.8998V179.996H52.3418V176.706H54.1338V175.516H52.3418ZM63.4373 177.098H60.3573V174.242H63.4373V177.098ZM64.8512 173.094H58.9293V178.246H64.8512V173.094ZM61.6453 182.628H68.3653V179.366H60.2033V180.5H66.9373V181.578H60.2313V184.924H68.7853V183.776H61.6453V182.628ZM68.3653 175.026V172.436H66.9233V178.82H68.3653V176.216H70.1433V175.026H68.3653ZM80.1102 174.858C80.1102 176.37 80.1102 178.162 79.6202 180.64L81.0762 180.794C81.5662 178.176 81.5662 176.426 81.5662 174.858V173.612H72.5642V174.788H80.1102V174.858ZM77.0862 182.236V177.784H75.6302V182.236H71.3742V183.426H82.7982V182.236H77.0862ZM95.1956 177.994C93.2496 177.406 92.1016 175.95 92.1016 174.41V174.354H94.8036V173.192H87.8876V174.354H90.6316V174.41C90.6316 176.034 89.4836 177.588 87.4956 178.204L88.2236 179.338C89.7356 178.848 90.8136 177.826 91.3876 176.538C91.9616 177.728 93.0396 178.666 94.4956 179.114L95.1956 177.994ZM96.3856 183.762H90.9816V182.362H96.3856V183.762ZM96.3856 181.228H90.9816V179.87H89.5536V184.924H97.8136V179.87H96.3856V181.228ZM96.3716 172.422V179.296H97.8136V172.422H96.3716ZM103.119 181.032C102.251 181.032 101.719 179.898 101.719 177.896C101.719 175.894 102.251 174.774 103.119 174.774C103.987 174.774 104.519 175.894 104.519 177.896C104.519 179.898 103.987 181.032 103.119 181.032ZM107.165 177.224H105.807C105.653 174.858 104.631 173.416 103.119 173.416C101.481 173.416 100.403 175.124 100.403 177.896C100.403 180.668 101.481 182.39 103.119 182.39C104.659 182.39 105.695 180.878 105.821 178.414H107.165V184.476H108.509V172.674H107.165V177.224ZM109.699 172.436V185.064H111.071V172.436H109.699ZM117.733 173.458H116.277V175.544C116.277 177.91 115.045 180.346 113.071 181.312L113.981 182.46C115.423 181.718 116.459 180.248 117.019 178.456C117.565 180.15 118.587 181.536 120.015 182.25L120.869 181.088C118.937 180.192 117.733 177.896 117.733 175.544V173.458ZM122.199 172.408V176.566H119.497V177.742H122.199V185.092H123.655V172.408H122.199ZM161.363 182.404V180.248H165.311V179.086H157.737V177.322H165.031V173.318H156.295V174.48H163.603V176.174H156.323V180.248H159.921V182.404H154.937V183.594H166.389V182.404H161.363ZM25.744 201.802H27.186V192.436H25.744V194.76H23.882V195.922H25.744V197.224H23.882V198.386H25.744V201.802ZM19.584 194.578H21.194V198.792C20.648 198.82 20.116 198.834 19.584 198.848V194.578ZM24.008 198.568C23.56 198.61 23.07 198.666 22.58 198.694V194.578H23.714V193.402H17.05V194.578H18.198V198.876C17.68 198.876 17.176 198.876 16.714 198.876L16.882 200.066C18.912 200.066 21.712 200.024 24.092 199.632L24.008 198.568ZM20.424 203.664V201.06H18.982V204.84H27.508V203.664H20.424ZM33.2749 201.172C32.2529 201.172 31.5109 200.472 31.5109 199.408C31.5109 198.344 32.2529 197.644 33.2749 197.644C34.2969 197.644 35.0389 198.344 35.0389 199.408C35.0389 200.472 34.2969 201.172 33.2749 201.172ZM33.2749 196.454C31.4549 196.454 30.1389 197.686 30.1389 199.408C30.1389 201.144 31.4549 202.362 33.2749 202.362C35.0809 202.362 36.4109 201.144 36.4109 199.408C36.4109 197.686 35.0809 196.454 33.2749 196.454ZM33.9749 192.632H32.5329V194.382H29.5229V195.558H36.9289V194.382H33.9749V192.632ZM41.3529 197.518H39.4069V192.436H37.9509V205.092H39.4069V198.722H41.3529V197.518ZM49.2478 197.462H47.3858C47.7498 196.384 47.9178 195.222 47.9178 193.99H43.0038V195.152H46.4898C46.2798 197.742 45.0338 199.814 42.4018 201.382L43.2278 202.404C44.9778 201.354 46.1818 200.08 46.9238 198.624H49.2478V204.476H50.6058V192.744H49.2478V197.462ZM51.8938 192.436V205.078H53.2798V192.436H51.8938ZM71.8178 199.114H64.5238V197.378H71.4398V196.244H64.5238V194.62H71.7198V193.458H63.0538V200.276H71.8178V199.114ZM61.6398 202.348V203.524H73.1058V202.348H61.6398ZM76.2967 198.358H79.3767V193.766H74.8827V194.928H77.9907V197.196H74.9107V202.04H75.7787C77.3607 202.04 78.7747 201.998 80.4827 201.704L80.3567 200.514C78.8727 200.766 77.6267 200.836 76.2967 200.85V198.358ZM81.3647 196.86H79.9367V198.05H81.3647V204.448H82.7087V192.716H81.3647V196.86ZM83.9267 192.436V205.078H85.2987V192.436H83.9267ZM96.3436 192.422V205.106H97.7996V192.422H96.3436ZM91.0656 193.36C89.1896 193.36 87.8176 195.096 87.8176 197.812C87.8176 200.556 89.1896 202.278 91.0656 202.278C92.9556 202.278 94.3276 200.556 94.3276 197.812C94.3276 195.096 92.9556 193.36 91.0656 193.36ZM91.0656 194.662C92.1716 194.662 92.9416 195.852 92.9416 197.812C92.9416 199.8 92.1716 200.99 91.0656 200.99C89.9736 200.99 89.2036 199.8 89.2036 197.812C89.2036 195.852 89.9736 194.662 91.0656 194.662ZM102.377 193.822H100.949V202.082H101.957C103.903 202.082 105.751 201.956 107.767 201.564L107.599 200.374C105.821 200.724 104.127 200.864 102.377 200.878V193.822ZM109.335 192.436V196.496H105.667V197.672H109.335V205.106H110.777V192.436H109.335ZM114.919 196.258C114.919 195.152 115.759 194.452 116.907 194.452C118.055 194.452 118.881 195.152 118.881 196.258C118.881 197.364 118.055 198.05 116.907 198.05C115.759 198.05 114.919 197.364 114.919 196.258ZM117.635 199.226C119.203 198.946 120.281 197.812 120.281 196.258C120.281 194.466 118.853 193.22 116.907 193.22C114.961 193.22 113.519 194.466 113.519 196.258C113.519 197.812 114.625 198.96 116.193 199.24V201.228C115.059 201.256 113.967 201.256 113.015 201.256L113.211 202.446C115.381 202.446 118.279 202.432 120.925 201.97L120.799 200.906C119.791 201.046 118.713 201.13 117.635 201.172V199.226ZM124.831 197.532H122.983V192.436H121.541V205.064H122.983V198.736H124.831V197.532ZM134.891 193.878C136.669 193.878 137.831 194.396 137.831 195.292C137.831 196.188 136.669 196.706 134.891 196.706C133.099 196.706 131.937 196.188 131.937 195.292C131.937 194.396 133.099 193.878 134.891 193.878ZM134.891 197.868C137.593 197.868 139.371 196.874 139.371 195.292C139.371 193.71 137.593 192.716 134.891 192.716C132.175 192.716 130.411 193.71 130.411 195.292C130.411 196.874 132.175 197.868 134.891 197.868ZM132.035 201.102H130.579V204.84H139.371V203.664H132.035V201.102ZM129.165 198.722V199.898H134.261V202.292H135.731V199.898H140.631V198.722H129.165ZM147.742 203.972C145.894 203.972 144.858 203.566 144.858 202.782C144.858 202.012 145.894 201.592 147.742 201.592C149.59 201.592 150.64 202.012 150.64 202.782C150.64 203.566 149.59 203.972 147.742 203.972ZM147.742 200.486C145.04 200.486 143.388 201.326 143.388 202.782C143.388 204.252 145.04 205.092 147.742 205.092C150.458 205.092 152.096 204.252 152.096 202.782C152.096 201.326 150.458 200.486 147.742 200.486ZM148.498 198.54V197.28H152.18V196.118H144.914V194.144H152.096V192.996H143.486V197.28H147.056V198.54H142.072V199.716H153.496V198.54H148.498ZM158.017 201.046C157.163 201.046 156.561 200.36 156.561 199.31C156.561 198.26 157.163 197.56 158.017 197.56C158.871 197.56 159.473 198.26 159.473 199.31C159.473 200.36 158.871 201.046 158.017 201.046ZM158.017 196.37C156.421 196.37 155.273 197.56 155.273 199.31C155.273 201.046 156.421 202.25 158.017 202.25C159.613 202.25 160.761 201.046 160.761 199.31C160.761 197.56 159.613 196.37 158.017 196.37ZM158.731 192.8H157.303V194.494H154.909V195.656H161.097V194.494H158.731V192.8ZM164.331 192.436V197.672H162.987V192.702H161.643V204.49H162.987V198.862H164.331V205.078H165.703V192.436H164.331ZM171.932 199.604C172.422 199.716 172.968 199.772 173.528 199.772C174.088 199.772 174.634 199.716 175.124 199.59V202.348H171.932V199.604ZM173.528 194.298C175.432 194.298 176.762 195.138 176.762 196.468C176.762 197.812 175.432 198.652 173.528 198.652C171.61 198.652 170.28 197.812 170.28 196.468C170.28 195.138 171.61 194.298 173.528 194.298ZM176.566 202.348V199.058C177.574 198.484 178.176 197.588 178.176 196.468C178.176 194.452 176.216 193.164 173.528 193.164C170.826 193.164 168.88 194.452 168.88 196.468C168.88 197.588 169.482 198.498 170.49 199.058V202.348H167.816V203.524H179.268V202.348H176.566ZM181.842 200.71H182.92L183.144 195.11L183.2 193.444H181.576L181.618 195.11L181.842 200.71ZM182.374 204.182C182.99 204.182 183.466 203.72 183.466 203.062C183.466 202.39 182.99 201.914 182.374 201.914C181.772 201.914 181.31 202.39 181.31 203.062C181.31 203.72 181.772 204.182 182.374 204.182Z" fill="white"/>
<path d="M136.907 177.77C134.849 177.308 134.093 176.146 133.995 175.054H136.403V173.304H133.981V172.156H131.713V173.304H129.305V175.054H131.699C131.615 176.244 130.859 177.476 128.787 177.98L129.823 179.73C131.335 179.366 132.301 178.554 132.875 177.546C133.477 178.456 134.443 179.17 135.913 179.52L136.907 177.77ZM139.511 181.816V180.066H130.607V181.816H133.687C133.337 182.586 132.301 183.342 130.005 183.566L130.803 185.274C132.945 185.022 134.331 184.28 135.073 183.286C135.815 184.294 137.187 185.064 139.301 185.302L140.099 183.594C137.873 183.356 136.823 182.572 136.445 181.816H139.511ZM139.385 174.97V172.198H137.117V179.59H139.385V176.804H141.023V174.97H139.385ZM152.53 178.778H145.474V177.644H152.124V175.922H145.474V174.844H152.446V173.066H143.164V180.542H152.53V178.778ZM141.848 182.11V183.916H153.748V182.11H141.848Z" fill="#FFE399"/>
<path d="M287 480H80V399.521C80 395.746 81.9769 392.255 85.1957 390.378L179.091 335.4C182.31 333.523 186.263 333.533 189.462 335.432L281.856 390.357C285.033 392.244 286.99 395.714 286.99 399.469V480H287Z" fill="white"/>
<mask id="mask0" mask-type="alpha" maskUnits="userSpaceOnUse" x="177" y="224" width="183" height="256">
<rect x="177.391" y="224.348" width="182.609" height="255.652" fill="white"/>
</mask>
<g mask="url(#mask0)">
<path d="M204.102 504.786C196.015 504.651 188.062 499.991 183.347 492.636C179.077 485.973 178.069 478.532 177.666 472.794C176.304 453.32 180.006 431.556 188.667 408.095C193.7 394.457 199.985 383.532 207.877 374.689L208.891 373.55C214.254 367.525 219.794 361.29 228.254 357.163C229.988 356.318 231.625 355.65 233.207 355.154C229.127 353.072 225.157 349.722 221.431 345.191C216.41 339.079 212.214 331.075 210.467 324.302C206.753 309.88 205.855 298.398 207.694 288.526C207.266 287.51 207.022 286.377 206.997 285.183C206.875 284.999 206.759 284.815 206.643 284.625C204.456 280.89 204.945 276.823 205.501 274.092C207.987 261.949 215.604 250.889 226.397 243.754C227.515 243.013 228.675 242.315 229.836 241.678C237.526 237.459 246.657 235.132 255.557 235.132C260.169 235.132 264.634 235.738 268.848 236.932C269.911 234.96 271.249 233.129 272.831 231.494C275.903 228.322 279.702 226.105 283.825 225.083C285.786 224.599 287.838 224.348 289.915 224.348C296.182 224.348 302.638 226.577 308.099 230.619C319.118 238.782 325.073 252.628 327.12 258.201C330.62 267.723 332.678 278.63 333.417 291.539C334.871 316.904 324.67 340.212 305.417 355.589C306.621 356.024 307.861 356.551 309.143 357.175C317.597 361.303 323.143 367.537 328.5 373.563L329.514 374.702C337.406 383.545 343.685 394.47 348.724 408.108C357.385 431.568 361.087 453.339 359.725 472.807C359.322 478.545 358.314 485.985 354.044 492.648C349.329 500.009 341.376 504.663 333.289 504.798C333.154 504.798 333.026 504.798 332.892 504.798C325.275 504.798 319.649 501.087 316.608 494.063C314.433 489.029 313.969 483.248 313.56 478.153C313.48 477.136 313.401 476.156 313.309 475.226C311.794 459.75 309.461 446.229 306.199 433.999L303.939 444.147C303.658 445.402 303.249 447.264 302.186 449.077C302.302 454.319 302.412 459.585 302.528 464.846L302.614 468.949C302.638 470.241 302.773 471.937 302.907 473.737C303.603 482.85 304.562 495.33 296.249 500.193C292.706 502.263 288.962 502.385 286.482 502.465C282.262 502.599 278.108 502.667 274.126 502.667C262.086 502.667 251.067 502.073 240.427 500.842C237.355 500.487 233.775 499.868 230.501 497.957C228.089 496.549 226.152 494.614 224.754 492.213C223.923 490.786 223.33 489.262 222.897 487.724C222.549 490.125 221.956 492.526 220.942 494.767C218.884 499.335 214.364 504.78 204.542 504.78C204.401 504.786 204.255 504.786 204.102 504.786Z" fill="white"/>
<path d="M248.306 363.341C248.056 363.06 247.781 362.79 247.482 362.539C245.307 360.702 242.174 359.986 239.23 360.188C236.286 360.384 233.5 361.412 230.923 362.668C223.062 366.508 217.906 372.638 212.427 378.768C204.188 388.002 198.556 398.94 194.396 410.214C187.164 429.792 182.302 451.538 183.762 472.359C184.171 478.207 185.21 484.203 188.49 489.322C191.77 494.442 197.688 498.551 204.212 498.661C216.532 498.87 217.204 487.957 217.314 479.708C217.546 462.175 220.221 444.722 225.199 427.851C228.272 417.434 232.218 407.244 237.006 397.39C239.401 392.467 242.003 387.623 244.813 382.883C245.918 381.021 247.372 379.588 248.587 377.855C249.974 375.871 250.542 372.864 250.658 370.549C250.78 368.008 250.078 365.32 248.306 363.341Z" fill="#FFC9C9"/>
<path d="M233.58 492.666C235.87 494.001 238.588 494.467 241.129 494.755C256.137 496.488 271.23 496.818 286.293 496.341C288.632 496.267 291.039 496.151 293.177 494.902C299.431 491.239 296.664 476.395 296.512 469.071C296.359 461.759 296.206 454.447 296.035 447.135C295.913 441.66 296.304 436.59 293.482 432.217C290.379 427.41 285.719 424.673 281.034 423.766C275.237 422.646 269.343 423.962 263.564 425.279C255.654 427.079 247.751 428.886 239.841 430.686C237.135 431.305 234.386 431.942 231.918 433.534C229.182 435.304 226.629 436.676 225.651 440.901C224.925 444.043 225.181 447.417 225.444 450.681C226.201 460.075 226.959 469.463 227.716 478.857C228.009 482.452 228.357 486.249 230.031 489.127C230.972 490.725 232.199 491.858 233.58 492.666Z" fill="#FFC9C9"/>
<path d="M310.066 380.476C309.766 369.086 305.509 362.178 295.553 357.579C285.603 352.986 274.455 351.149 263.571 352.545C248.685 354.456 234.227 361.829 226.934 375.032C221.852 384.23 217.577 393.979 215.579 404.298C213.582 414.617 213.985 425.579 217.992 435.291C219.629 439.266 222.036 443.179 225.816 445.218C229.121 447 233.03 447.123 236.781 447.208C254.58 447.606 272.385 448.01 290.184 448.409C292.309 448.458 294.686 448.409 296.194 446.908C297.263 445.843 297.636 444.281 297.966 442.805C301.026 429.051 304.086 415.297 307.14 401.542C308.704 394.604 310.255 387.58 310.066 380.476Z" fill="#3C50A5"/>
<path d="M289.09 363.341C289.341 363.06 289.615 362.79 289.915 362.539C292.089 360.702 295.223 359.986 298.167 360.188C301.111 360.384 303.896 361.412 306.474 362.668C314.335 366.508 319.49 372.638 324.969 378.768C333.209 388.002 338.841 398.94 343 410.214C350.226 429.792 355.094 451.538 353.635 472.359C353.225 478.207 352.187 484.203 348.907 489.322C345.627 494.442 339.708 498.551 333.185 498.661C320.009 498.882 320.315 484.111 319.386 474.619C317.89 459.321 315.441 444.048 311.226 429.253C309.204 422.174 306.706 415.095 303.627 408.377C301.27 403.233 298.564 398.254 295.449 393.532C290.41 385.902 281.266 372.08 289.09 363.341Z" fill="#FFC9C9"/>
<path d="M241.649 376.263C240.531 384.316 241.099 392.528 242.162 400.593C242.724 404.855 244.129 409.957 248.13 410.992C250.805 411.684 253.523 410.159 255.759 408.481C268.512 398.921 275.567 383.336 282.103 368.43C283.294 365.705 284.503 362.937 284.907 359.967C285.31 356.997 284.797 353.758 282.891 351.522C280.026 348.154 275.073 348.007 270.803 348.614C264.371 349.526 255.783 351.431 250.359 355.411C244.837 359.465 242.553 369.753 241.649 376.263Z" stroke="#FF5777" stroke-width="3" stroke-miterlimit="10"/>
<path d="M244.446 409.479C242.993 409.442 241.631 409.7 240.513 410.998C239.487 412.186 239.163 413.625 238.912 415.125C238.638 416.785 238.436 418.463 238.283 420.141C238.015 423.031 237.709 425.916 237.587 428.818C237.489 431.115 237.025 433.901 238.515 435.842C240.134 437.955 243.133 438.072 245.564 438.378C247.226 438.586 248.893 438.77 250.561 438.923C251.85 439.039 253.358 439.253 254.598 438.77C255.655 438.359 256.431 437.233 256.712 436.167C256.968 435.187 257.029 434.177 257.17 433.179C257.451 431.145 257.683 429.112 257.897 427.073C258.165 424.544 258.404 422.015 258.593 419.479C258.715 417.906 258.892 416.295 258.825 414.721C258.727 412.535 257.616 411.12 255.429 410.796C252.619 410.385 249.815 409.938 246.987 409.687C246.132 409.62 245.277 409.497 244.446 409.479Z" fill="#FF5777"/>
<path d="M255.594 336.579C255.575 336.598 255.557 336.616 255.545 336.628C249.596 342.765 250.86 351.834 250.011 359.703C249.535 364.131 249.822 369.067 252.845 372.337C259.442 379.477 272.409 374.015 277.559 367.799C281.999 362.434 283.606 355.484 284.186 348.723C284.736 342.317 284.479 335.857 283.416 329.512C283.117 327.712 282.616 325.722 280.985 324.711C279.08 323.529 276.532 324.228 274.419 325.054C267.908 327.614 260.419 331.631 255.594 336.579Z" fill="#FFC9C9"/>
<path d="M215.513 282.983C210.864 295.427 213.161 310.29 216.374 322.77C219.22 333.83 230.655 351.522 243.109 351.559C277.876 351.675 301.087 310.743 288.682 279.787C286.416 274.122 282.934 268.941 278.286 264.979C257.048 246.859 224.821 258.071 215.513 282.983Z" fill="#FFC9C9"/>
<path d="M229.757 248.855C230.734 248.206 231.742 247.6 232.768 247.036C243.445 241.176 257.042 239.486 268.623 243.246C273.845 244.942 278.921 245.867 283.862 248.482C288.682 251.029 293.067 254.379 296.763 258.39C299.298 261.14 301.503 264.195 303.323 267.46C310.555 280.412 309.883 294 307.843 308.134C306.804 315.336 302.046 321.883 296.695 326.567C294.313 328.65 279.66 338.852 280.051 330.125C280.13 328.362 281.101 326.782 281.902 325.208C286.813 315.563 285.725 303.376 279.971 294.215C274.218 285.053 264.213 278.942 253.584 277.013C246.023 275.641 238.186 276.296 230.832 278.452C227.124 279.542 223.752 281.226 220.191 282.665C217.638 283.7 213.601 284.404 211.903 281.508C210.828 279.677 211.054 277.38 211.481 275.304C213.692 264.526 220.582 254.924 229.757 248.855Z" fill="#3C50A5"/>
<path d="M263.332 288.03C268.317 291.061 272.8 294.876 276.758 299.151C280.618 303.315 283.581 308.429 285.957 313.603C286.959 315.783 287.808 318.031 288.614 320.291C289.787 323.561 290.19 326.941 290.398 330.377C290.41 330.566 290.422 330.762 290.538 330.915C290.831 331.307 291.448 331.075 291.845 330.799C295.247 328.441 297.856 324.957 299.175 321.025C301.539 313.977 299.065 306.322 296.127 299.824C293.433 293.866 289.689 288.379 285.084 283.737C279.226 277.821 271.994 273.29 264.145 270.552C251.153 266.021 236.726 265.084 223.923 270.822C218.413 273.29 214.278 278.428 213.167 284.178C213.002 285.029 213.081 286.701 214.156 286.958C214.852 287.13 215.909 286.327 216.508 286.003C217.351 285.537 218.175 285.035 219.024 284.576C221.968 282.984 225.187 281.949 228.473 281.336C229.823 281.085 231.179 280.908 232.548 280.81C233.25 280.761 235.877 280.657 236.493 280.644C242.632 280.522 248.801 281.624 254.555 283.761C256.119 284.343 257.652 284.998 259.148 285.739C260.584 286.438 261.976 287.209 263.332 288.03Z" fill="#FF5777"/>
<path d="M277.223 235.744C279.415 233.478 282.189 231.781 285.298 231.01C291.882 229.381 299.016 231.488 304.471 235.529C312.283 241.316 318.092 251.323 321.39 260.3C325.104 270.411 326.705 281.158 327.321 291.875C328.622 314.656 319.662 336.629 301.13 351.161C300.556 351.608 299.969 352.043 299.371 352.459C295.559 355.111 291.235 357.174 286.678 358.105C284.436 358.565 282.121 358.73 279.843 358.479C278.719 358.356 277.601 358.13 276.52 357.787C275.537 357.481 274.193 357.132 273.497 356.329C273.265 356.066 273.106 355.705 273.167 355.356C273.234 354.976 273.527 354.688 273.839 354.455C275.213 353.433 276.514 352.269 277.846 351.179C279.244 350.04 280.625 348.87 281.932 347.627C285.34 344.375 288.193 340.456 290.532 336.457C295.168 328.521 297.807 319.5 297.966 310.376C298.155 299.518 294.845 288.623 288.755 279.376C285.707 274.747 281.614 270.987 278.695 266.32C275.555 261.305 272.843 255.855 272.171 250.012C271.567 244.764 273.607 239.479 277.223 235.744Z" fill="#3C50A5"/>
<path d="M294.655 305.856C296.31 307.534 296.872 310.021 296.866 312.378C296.866 317.13 294.777 321.846 291.271 325.036C289.879 326.304 288.236 327.357 286.397 327.78C284.558 328.202 282.518 327.939 281.01 326.806C277.161 323.91 275.915 313.285 278.157 309.071C280.796 304.093 290.538 301.686 294.655 305.856Z" fill="#FFC9C9"/>
<path d="M242.901 300.338C245.772 295.923 251.77 293.841 256.748 295.531" stroke="#3C50A5" stroke-width="3" stroke-miterlimit="10" stroke-linecap="round" stroke-linejoin="round"/>
<path d="M228.382 300.326C226.733 298.232 224.174 296.878 221.523 296.707" stroke="#3C50A5" stroke-width="3" stroke-miterlimit="10" stroke-linecap="round" stroke-linejoin="round"/>
<path d="M245.913 312.47C246.102 313.058 246.365 313.646 246.811 314.075C247.256 314.503 247.928 314.742 248.509 314.534C249.394 314.215 249.669 313.107 249.694 312.17C249.724 310.988 249.559 309.8 249.205 308.673C248.759 307.246 246.688 304.87 245.479 306.916C244.758 308.141 245.522 311.27 245.913 312.47Z" fill="#3C50A5"/>
<path d="M226.098 312.476C226.397 313.291 226.947 314.209 227.814 314.203C228.394 314.197 228.901 313.738 229.115 313.193C229.329 312.648 229.298 312.041 229.219 311.466C229.054 310.333 227.716 305.507 225.939 305.924C224.082 306.358 225.713 311.417 226.098 312.476Z" fill="#3C50A5"/>
<path d="M234.698 311.87C235.626 314.197 234.912 317.075 233.006 318.698C232.248 319.341 231.283 319.861 230.954 320.798C230.538 321.98 231.406 323.303 232.542 323.836C233.678 324.369 234.979 324.313 236.231 324.246" stroke="#3C50A5" stroke-width="3" stroke-miterlimit="10" stroke-linecap="round" stroke-linejoin="round"/>
<path d="M238.137 333.169C245.656 332.599 252.65 327.504 255.52 320.517" stroke="#3C50A5" stroke-width="3" stroke-miterlimit="10" stroke-linecap="round" stroke-linejoin="round"/>
</g>
</svg>
