<svg width="353" height="66" viewBox="0 0 353 66" fill="none" xmlns="http://www.w3.org/2000/svg">
<g filter="url(#filter0_d)">
<rect x="5" y="5" width="343" height="56" rx="10" fill="white"/>
</g>
<path d="M134.552 40H136.408V35.536H138.184C140.744 35.536 142.616 34.352 142.616 31.776C142.616 29.12 140.744 28.208 138.12 28.208H134.552V40ZM136.408 34.048V29.712H137.944C139.816 29.712 140.792 30.224 140.792 31.776C140.792 33.328 139.896 34.048 138.008 34.048H136.408ZM146.921 40H148.777V29.776H152.249V28.208H143.465V29.776H146.921V40ZM158.504 35.536L160.824 32.048C161.16 31.456 161.48 30.912 161.768 30.336H161.832C161.8 30.976 161.752 32 161.752 32.64V35.536H158.504ZM161.752 40H163.48V36.96H164.968V35.536H163.48V28.544H161.336L156.648 35.728V36.96H161.752V40ZM175.373 28.464H171.837V26.816H170.189V28.464H166.637V29.792H175.373V28.464ZM169.053 33.184C169.053 32.304 169.853 31.76 171.021 31.76C172.173 31.76 172.973 32.304 172.973 33.184C172.973 34.08 172.173 34.624 171.021 34.624C169.853 34.624 169.053 34.08 169.053 33.184ZM171.837 35.824C173.469 35.568 174.541 34.592 174.541 33.184C174.541 31.568 173.101 30.496 171.021 30.496C168.925 30.496 167.485 31.568 167.485 33.184C167.485 34.576 168.557 35.568 170.189 35.824V37.232C168.829 37.28 167.501 37.28 166.349 37.28L166.557 38.64C169.181 38.64 172.605 38.592 175.789 38.048L175.677 36.848C174.445 37.024 173.133 37.104 171.837 37.184V35.824ZM176.493 26.768V41.232H178.157V26.768H176.493ZM185.98 30.544H189.036V29.216H185.98V27.072H184.332V29.216H181.228V30.544H184.332V31.376C184.332 33.744 182.988 36.176 180.78 37.232L181.692 38.496C183.34 37.728 184.54 36.144 185.18 34.272C185.772 36.016 186.924 37.488 188.476 38.24L189.388 36.976C187.244 35.936 185.98 33.584 185.98 31.376V30.544ZM194.428 32.576H192.172V26.768H190.524V41.232H192.172V33.936H194.428V32.576Z" fill="#333333"/>
<path d="M286.455 40H292.887V38.784H290.535V28.256H289.415C288.775 28.64 288.023 28.912 286.983 29.104V30.032H289.063V38.784H286.455V40ZM298.386 40.208C300.594 40.208 302.066 38.88 302.066 37.168C302.066 35.568 301.106 34.688 300.082 34.096V34.016C300.786 33.472 301.65 32.416 301.65 31.184C301.65 29.376 300.434 28.096 298.434 28.096C296.61 28.096 295.218 29.28 295.218 31.072C295.218 32.304 295.938 33.184 296.802 33.776V33.856C295.73 34.432 294.642 35.52 294.642 37.088C294.642 38.896 296.226 40.208 298.386 40.208ZM299.186 33.632C297.81 33.088 296.546 32.48 296.546 31.072C296.546 29.936 297.33 29.168 298.418 29.168C299.682 29.168 300.402 30.112 300.402 31.264C300.402 32.128 299.986 32.928 299.186 33.632ZM298.418 39.12C297.01 39.12 295.97 38.208 295.97 36.96C295.97 35.84 296.626 34.912 297.57 34.304C299.234 34.976 300.674 35.568 300.674 37.136C300.674 38.304 299.762 39.12 298.418 39.12ZM305.021 33.76C305.597 33.76 306.077 33.296 306.077 32.656C306.077 31.984 305.597 31.52 305.021 31.52C304.445 31.52 303.965 31.984 303.965 32.656C303.965 33.296 304.445 33.76 305.021 33.76ZM305.021 40.208C305.597 40.208 306.077 39.76 306.077 39.104C306.077 38.432 305.597 37.968 305.021 37.968C304.445 37.968 303.965 38.432 303.965 39.104C303.965 39.76 304.445 40.208 305.021 40.208ZM311.698 40.208C313.922 40.208 315.346 38.176 315.346 34.096C315.346 30.032 313.922 28.048 311.698 28.048C309.458 28.048 308.034 30.016 308.034 34.096C308.034 38.176 309.458 40.208 311.698 40.208ZM311.698 39.04C310.354 39.04 309.458 37.552 309.458 34.096C309.458 30.672 310.354 29.216 311.698 29.216C313.026 29.216 313.922 30.672 313.922 34.096C313.922 37.552 313.026 39.04 311.698 39.04ZM320.573 40.208C322.797 40.208 324.221 38.176 324.221 34.096C324.221 30.032 322.797 28.048 320.573 28.048C318.333 28.048 316.909 30.016 316.909 34.096C316.909 38.176 318.333 40.208 320.573 40.208ZM320.573 39.04C319.229 39.04 318.333 37.552 318.333 34.096C318.333 30.672 319.229 29.216 320.573 29.216C321.901 29.216 322.797 30.672 322.797 34.096C322.797 37.552 321.901 39.04 320.573 39.04Z" fill="#333333"/>
<path d="M44.323 40.208C46.547 40.208 47.971 38.176 47.971 34.096C47.971 30.032 46.547 28.048 44.323 28.048C42.083 28.048 40.659 30.016 40.659 34.096C40.659 38.176 42.083 40.208 44.323 40.208ZM44.323 39.04C42.979 39.04 42.083 37.552 42.083 34.096C42.083 30.672 42.979 29.216 44.323 29.216C45.651 29.216 46.547 30.672 46.547 34.096C46.547 37.552 45.651 39.04 44.323 39.04ZM50.158 40H56.59V38.784H54.238V28.256H53.118C52.478 28.64 51.726 28.912 50.686 29.104V30.032H52.766V38.784H50.158V40ZM59.849 40.208C60.425 40.208 60.905 39.76 60.905 39.104C60.905 38.432 60.425 37.968 59.849 37.968C59.273 37.968 58.793 38.432 58.793 39.104C58.793 39.76 59.273 40.208 59.849 40.208ZM62.7821 40H70.1581V38.736H66.9101C66.3181 38.736 65.5981 38.8 64.9901 38.848C67.7421 36.24 69.5821 33.856 69.5821 31.52C69.5821 29.424 68.2701 28.048 66.1741 28.048C64.6861 28.048 63.6781 28.736 62.7181 29.776L63.5661 30.608C64.2061 29.84 65.0381 29.248 65.9981 29.248C67.4541 29.248 68.1581 30.224 68.1581 31.568C68.1581 33.584 66.4621 35.92 62.7821 39.136V40ZM75.1291 40.208C77.1131 40.208 78.9691 38.752 78.9691 36.176C78.9691 33.6 77.3851 32.448 75.4331 32.448C74.7291 32.448 74.2171 32.624 73.6891 32.912L73.9771 29.52H78.4091V28.256H72.6971L72.3291 33.76L73.1131 34.24C73.7851 33.792 74.2811 33.552 75.0651 33.552C76.5371 33.552 77.4971 34.544 77.4971 36.224C77.4971 37.936 76.3771 38.992 75.0011 38.992C73.6411 38.992 72.7931 38.368 72.1211 37.696L71.4011 38.656C72.1851 39.44 73.3051 40.208 75.1291 40.208ZM91.8383 33.664V34.528H94.6863V35.28H95.9983V26.848H94.6863V33.664H91.8383ZM88.8463 28.032C90.2543 28.032 91.1503 28.512 91.1503 29.28C91.1503 30.016 90.2543 30.512 88.8463 30.512C87.4543 30.512 86.5423 30.016 86.5423 29.28C86.5423 28.512 87.4543 28.032 88.8463 28.032ZM88.8463 31.408C90.9743 31.408 92.3823 30.592 92.3823 29.28C92.3823 27.936 90.9743 27.12 88.8463 27.12C86.7183 27.12 85.3103 27.936 85.3103 29.28C85.3103 30.592 86.7183 31.408 88.8463 31.408ZM88.1102 35.328H89.4223V33.12C90.8143 33.04 92.2383 32.928 93.6303 32.736L93.5503 31.872C90.4783 32.224 86.9743 32.24 84.2063 32.24L84.3663 33.232C85.5182 33.232 86.7823 33.216 88.1102 33.184V35.328ZM87.7103 40.048V38.8H95.9983V35.808H86.3823V36.752H94.7183V37.904H86.4143V41.024H96.4943V40.048H87.7103Z" fill="#333333"/>
<circle cx="25" cy="33" r="4" fill="#3F4FA5"/>
<line x1="116.5" y1="21" x2="116.5" y2="45" stroke="#828282"/>
<defs>
<filter id="filter0_d" x="0" y="0" width="353" height="66" filterUnits="userSpaceOnUse" color-interpolation-filters="sRGB">
<feFlood flood-opacity="0" result="BackgroundImageFix"/>
<feColorMatrix in="SourceAlpha" type="matrix" values="0 0 0 0 0 0 0 0 0 0 0 0 0 0 0 0 0 0 127 0"/>
<feOffset/>
<feGaussianBlur stdDeviation="2.5"/>
<feColorMatrix type="matrix" values="0 0 0 0 0 0 0 0 0 0 0 0 0 0 0 0 0 0 0.2 0"/>
<feBlend mode="normal" in2="BackgroundImageFix" result="effect1_dropShadow"/>
<feBlend mode="normal" in="SourceGraphic" in2="effect1_dropShadow" result="shape"/>
</filter>
</defs>
</svg>
