<?xml version="1.0" encoding="utf-8"?>
<!-- Generator: Adobe Illustrator 25.0.0, SVG Export Plug-In . SVG Version: 6.00 Build 0)  -->
<svg version="1.1" id="레이어_1" xmlns="http://www.w3.org/2000/svg" xmlns:xlink="http://www.w3.org/1999/xlink" x="0px"
	 y="0px" viewBox="0 0 72 72" style="enable-background:new 0 0 72 72;" xml:space="preserve">
<style type="text/css">
	.st0{fill:#3F4FA5;fill-opacity:0.2;}
	.st1{clip-path:url(#SVGID_2_);}
	.st2{fill:#FFC9C9;}
	.st3{fill:#FF5777;}
	.st4{fill:#3C50A5;}
</style>
<circle class="st0" cx="36" cy="36" r="36"/>
<g>
	<defs>
		<circle id="SVGID_1_" cx="36" cy="36" r="36"/>
	</defs>
	<clipPath id="SVGID_2_">
		<use xlink:href="#SVGID_1_"  style="overflow:visible;"/>
	</clipPath>
	<g class="st1">
		<path class="st2" d="M32.51,54.89c-0.09-0.1-0.19-0.19-0.29-0.28c-0.77-0.65-1.88-0.9-2.92-0.83c-1.04,0.07-2.03,0.43-2.94,0.87
			c-2.78,1.35-4.6,3.51-6.54,5.68c-2.91,3.26-4.9,7.11-6.37,11.09c-2.55,6.9-4.27,14.57-3.76,21.91c0.14,2.06,0.51,4.18,1.67,5.98
			c1.16,1.81,3.25,3.25,5.56,3.29c4.35,0.07,4.59-3.77,4.63-6.68c0.08-6.18,1.03-12.33,2.79-18.28c1.09-3.67,2.48-7.27,4.17-10.74
			c0.85-1.74,1.77-3.44,2.76-5.11c0.39-0.66,0.9-1.16,1.33-1.77c0.49-0.7,0.69-1.76,0.73-2.58C33.38,56.54,33.13,55.59,32.51,54.89z
			"/>
		<path class="st2" d="M46.92,54.89c0.09-0.1,0.19-0.19,0.29-0.28c0.77-0.65,1.88-0.9,2.92-0.83c1.04,0.07,2.03,0.43,2.94,0.87
			c2.78,1.35,4.6,3.51,6.54,5.68c2.91,3.26,4.9,7.11,6.37,11.09c2.55,6.9,4.27,14.57,3.76,21.91c-0.14,2.06-0.51,4.18-1.67,5.98
			c-1.16,1.81-3.25,3.25-5.56,3.29c-4.66,0.08-4.55-5.13-4.88-8.48c-0.53-5.39-1.39-10.78-2.88-15.99c-0.71-2.5-1.6-4.99-2.69-7.36
			c-0.83-1.81-1.79-3.57-2.89-5.23C47.39,62.84,44.16,57.97,46.92,54.89z"/>
		<path class="st3" d="M54.24,60.9c-0.11-4.02-1.61-6.45-5.13-8.07c-3.52-1.62-7.46-2.27-11.3-1.77
			c-5.26,0.67-10.37,3.27-12.95,7.93c-1.8,3.24-3.31,6.68-4.01,10.32c-0.7,3.64-0.56,7.5,0.85,10.93c1.26,3.04,2.21,6.21,2.79,9.46
			c0.3,1.68,0.5,3.39,0.59,5.1c0.08,1.49,0.09,3.09,0.87,4.43c0.33,0.57,0.76,0.96,1.25,1.25c0.81,0.47,1.77,0.64,2.67,0.74
			c3.51,0.4,7.04,0.59,10.58,0.62c2.18,0.02,4.6,0.47,6.63-0.56c2.36-1.21,2.71-2.87,2.97-5.42c0.21-2.15-0.03-4.46-0.01-6.63
			c0.01-2.44-0.33-5.23,0.19-7.62c0.97-4.43,2.01-8.83,2.99-13.26C53.76,65.88,54.31,63.41,54.24,60.9z"/>
		<path class="st3" d="M62.98,62.51c-2.12-2.58-4.58-4.88-7.29-6.83c-0.81-0.58-1.64-1.13-2.53-1.58c-2.51-1.28-4.97-2.34-7.79-2.78
			c-2.94-0.46-5.92-0.38-8.87-0.11c-4.3,0.4-8.49,1.95-12,4.46c-2.71,1.95-5.17,4.25-7.29,6.83c-1.78,2.17-5.35,5.68-2.74,8.4
			c0.85,0.89,2.02,1.67,2.71,2.23c1.1,0.9,2.23,1.76,3.38,2.59c0.18,1.54,0.54,3.05,1.14,4.49c1.26,3.04,2.21,6.21,2.79,9.46
			c0.3,1.68,0.5,3.39,0.59,5.1c0.08,1.49,0.09,3.09,0.87,4.43c0.33,0.57,0.76,0.96,1.25,1.25c0.81,0.47,1.77,0.63,2.67,0.74
			c3.51,0.4,7.04,0.59,10.58,0.62c2.18,0.02,4.6,0.47,6.63-0.56c2.36-1.21,2.71-2.87,2.97-5.42c0.21-2.15-0.03-4.46-0.01-6.63
			c0.01-2.44-0.33-5.23,0.19-7.62c0.32-1.45,0.64-2.9,0.97-4.35c0.1,0.34,0.21,0.69,0.31,1.03c0.44,1.45,1.14,1.98,2.41,1.2
			c1.37-0.84,2.74-1.68,4.07-2.58c1.73-1.17,3.41-2.42,5.03-3.75c0.68-0.56,1.85-1.34,2.71-2.23C68.32,68.2,64.76,64.68,62.98,62.51
			z"/>
		<path class="st2" d="M34.99,45.43c-0.01,0.01-0.01,0.01-0.02,0.02c-2.1,2.16-1.66,5.36-1.96,8.14c-0.17,1.56-0.07,3.3,1,4.45
			c2.33,2.52,6.92,0.59,8.74-1.6c1.57-1.89,2.14-4.34,2.34-6.73c0.19-2.26,0.1-4.54-0.27-6.77c-0.11-0.63-0.28-1.34-0.86-1.69
			c-0.67-0.42-1.57-0.17-2.32,0.12C39.34,42.26,36.69,43.68,34.99,45.43z"/>
		<path class="st2" d="M20.86,26.62c-1.64,4.39-0.83,9.63,0.3,14.03c1.01,3.9,5.05,10.14,9.45,10.15
			c12.29,0.04,20.49-14.39,16.11-25.3c-0.8-2-2.03-3.82-3.67-5.22C35.54,13.88,24.15,17.84,20.86,26.62z"/>
		<path class="st4" d="M31.37,36.93c0,0.23,0.02,0.47,0.13,0.67c0.11,0.2,0.32,0.37,0.55,0.36c0.35-0.01,0.58-0.37,0.7-0.7
			c0.15-0.41,0.23-0.85,0.24-1.29c0.01-0.55-0.44-1.64-1.11-1.06C31.47,35.27,31.37,36.46,31.37,36.93z"/>
		<path class="st4" d="M24.27,36.81c0,0.22,0.02,0.44,0.12,0.64c0.1,0.19,0.3,0.35,0.52,0.34c0.33-0.01,0.55-0.35,0.66-0.66
			c0.14-0.39,0.22-0.81,0.22-1.22c0.01-0.53-0.42-1.55-1.05-1C24.37,35.23,24.27,36.36,24.27,36.81z"/>
		<path class="st4" d="M27.75,41.5c-0.33,0-0.68-0.04-1.01-0.19c-0.53-0.25-0.94-0.86-0.73-1.47c0.12-0.34,0.4-0.55,0.64-0.73
			c0.06-0.05,0.13-0.1,0.19-0.15c0.56-0.48,0.78-1.35,0.51-2.04c-0.07-0.17,0.02-0.35,0.18-0.42c0.17-0.07,0.35,0.02,0.42,0.18
			c0.38,0.95,0.09,2.11-0.69,2.77c-0.07,0.06-0.14,0.11-0.21,0.17c-0.19,0.14-0.36,0.27-0.42,0.43c-0.09,0.25,0.14,0.55,0.39,0.67
			c0.34,0.16,0.77,0.13,1.15,0.11c0.18,0,0.33,0.13,0.34,0.31c0.01,0.18-0.13,0.33-0.31,0.34C28.06,41.5,27.91,41.5,27.75,41.5z"/>
		<path class="st3" d="M42.9,19.32c0.01,0.01,0.03,0.01,0.04,0.02c1.83,0.8,3.92,1.05,5.83,0.41c2.78-0.92,5.07-4.23,4.24-7.36
			c-0.71-2.71-3.3-4.16-5.58-4.98c-2.31-0.83-4.75-1.28-6.9-0.06c-1.47,0.84-2.09,2.21-2.48,3.73c-0.47,1.8-0.28,3.88,0.91,5.44
			C39.97,17.83,41.46,18.69,42.9,19.32z"/>
		<path class="st4" d="M46.74,12.28c1.29,0.67,2.43,1.52,3.21,2.47c1.43,1.72,3.13,6.19-0.5,6.78c-0.85,0.14-1.79-0.39-2.52-0.72
			c-2.43-1.1-4.93-2.11-7.18-3.48c-1.37-0.84-4.54-2.52-4.02-4.27c0.08-0.26,0.24-0.49,0.4-0.72c1.04-1.46,3.39-1.59,5.13-1.56
			C43.02,10.8,45.01,11.38,46.74,12.28z"/>
		<path class="st3" d="M51.9,21.15c-0.65-1.15-1.42-2.23-2.32-3.2c-1.31-1.41-2.86-2.6-4.56-3.49c-1.75-0.92-3.54-1.25-5.39-1.85
			c-4.09-1.33-8.9-0.73-12.67,1.34c-0.36,0.2-0.72,0.41-1.06,0.64c-4.17,2.75-6.61,7.42-7.14,12.3c-0.05,0.41-0.09,0.83-0.02,1.23
			c0.39,2.17,3.31,1.89,4.94,1.97c1.71,0.09,3.42,0.14,5.13,0.15c1.56,0.01,3.06,0.11,4.55-0.48c1.32-0.52,1.27-2.65,1.6-3.88
			c0.14-0.52,0.32-1.09,0.76-1.4c1.93-1.36,3.58,0.98,4.26,2.44c0.25,0.53,0.45,1.08,0.61,1.64c0.16,0.55,0.28,1.11,0.36,1.67
			c0.09,0.56,0.14,1.12,0.18,1.69c0.04,0.57,0.05,1.14,0.06,1.71c0.01,0.58,0,1.16,0,1.73c0,0.2,0,0.4,0,0.59
			c0,0.33-0.02,0.66,0.17,0.94c0.13,0.2,0.34,0.32,0.59,0.31c0.4-0.02,0.7-0.3,0.79-0.69c0-0.01,0-0.04,0.02-0.05
			c0.02-0.01,0.05,0.02,0.07,0.03c0.04,0.03,0.07,0.06,0.11,0.1c0.05,0.04,0.09,0.07,0.14,0.1c0.03,0.02,0.08,0.04,0.11,0.03
			c0.07-0.02,0.14-0.03,0.21-0.03c0.07,0,0.13,0,0.2,0.02c0.08,0.01,0.15,0.01,0.23,0.04c0.19,0.08,0.4,0.07,0.59,0.14
			c0.4,0.16,0.73,0.47,0.94,0.84c0.16,0.27,0.25,0.57,0.3,0.88c0.05,0.3-0.06,0.54-0.15,0.83c-0.18,0.62-0.39,1.23-0.73,1.79
			c-0.21,0.34-0.46,0.58-0.72,0.85c-0.27,0.29-0.38,0.75-0.39,1.14c-0.14,3.08,5.04-0.52,5.88-1.25c1.89-1.65,3.57-3.96,3.94-6.5
			C54.22,30.5,54.45,25.71,51.9,21.15z"/>
		<path class="st2" d="M48.83,34.68c0.59,0.59,0.78,1.47,0.78,2.3c0,1.68-0.74,3.34-1.98,4.46c-0.49,0.45-1.07,0.82-1.72,0.97
			c-0.65,0.15-1.37,0.06-1.9-0.34c-1.36-1.02-1.8-4.77-1.01-6.25C43.93,34.06,47.38,33.21,48.83,34.68z"/>
		<path class="st4" d="M22.36,34.01c-0.02,0-0.05,0-0.07-0.01c-0.17-0.04-0.28-0.22-0.24-0.39c0.15-0.66,0.57-1.24,1.14-1.61
			c0.57-0.36,1.27-0.5,1.93-0.37c0.17,0.03,0.29,0.21,0.25,0.38c-0.03,0.17-0.21,0.29-0.38,0.25c-0.5-0.1-1.03,0-1.46,0.28
			s-0.74,0.72-0.85,1.21C22.64,33.91,22.51,34.01,22.36,34.01z"/>
		<path class="st4" d="M35.43,34.32c-0.13,0-0.26-0.08-0.3-0.21c-0.25-0.69-0.76-1.28-1.41-1.63c-0.64-0.35-1.42-0.46-2.14-0.29
			c-0.17,0.04-0.35-0.07-0.39-0.24c-0.04-0.17,0.07-0.35,0.24-0.39c0.87-0.2,1.81-0.07,2.59,0.36c0.78,0.42,1.4,1.15,1.71,1.98
			c0.06,0.17-0.03,0.35-0.19,0.41C35.5,34.31,35.47,34.32,35.43,34.32z"/>
		<path class="st4" d="M29.9,45.21c-0.68,0-1.35-0.16-1.95-0.48c-0.16-0.08-0.22-0.28-0.14-0.44c0.08-0.16,0.28-0.22,0.44-0.14
			c0.83,0.44,1.82,0.52,2.71,0.24c0.89-0.28,1.65-0.92,2.08-1.75c0.08-0.16,0.28-0.22,0.44-0.14c0.16,0.08,0.22,0.28,0.14,0.44
			c-0.51,0.98-1.41,1.74-2.46,2.07C30.75,45.15,30.33,45.21,29.9,45.21z"/>
	</g>
</g>
</svg>
