<?xml version="1.0" encoding="utf-8"?>
<!-- Generator: Adobe Illustrator 25.0.0, SVG Export Plug-In . SVG Version: 6.00 Build 0)  -->
<svg version="1.1" id="레이어_1" xmlns="http://www.w3.org/2000/svg" xmlns:xlink="http://www.w3.org/1999/xlink" x="0px"
	 y="0px" viewBox="0 0 72 72" style="enable-background:new 0 0 72 72;" xml:space="preserve">
<style type="text/css">
	.st0{fill:#3F4FA5;fill-opacity:0.2;}
	.st1{clip-path:url(#SVGID_2_);}
	.st2{fill:#FFC9C9;}
	.st3{fill:#FF5777;}
	.st4{fill:#3C50A5;}
	.st5{fill:#D7DBED;}
	.st6{clip-path:url(#SVGID_4_);}
	.st7{fill:#FFC8C7;}
	.st8{fill:#FF5575;}
	.st9{fill:#E5E5E5;}
	.st10{fill:#FFFFFF;}
	.st11{fill:#3B4DA6;}
	.st12{fill:none;stroke:#666666;stroke-width:0.651;stroke-miterlimit:10;}
</style>
<circle class="st0" cx="36" cy="36" r="36"/>
<g>
	<defs>
		<circle id="SVGID_1_" cx="36" cy="36" r="36"/>
	</defs>
	<clipPath id="SVGID_2_">
		<use xlink:href="#SVGID_1_"  style="overflow:visible;"/>
	</clipPath>
	<g class="st1">
		<path class="st2" d="M38.66,57.43c0.04,0.82,0.24,1.88,0.73,2.58c0.43,0.61,0.94,1.12,1.33,1.77c0.99,1.67,1.91,3.38,2.76,5.11
			c1.69,3.47,3.09,7.07,4.17,10.74c1.76,5.95,2.71,12.1,2.79,18.28c0.04,2.91,0.28,6.76,4.63,6.68c2.31-0.04,4.4-1.49,5.56-3.29
			c1.16-1.81,1.53-3.92,1.67-5.98c0.51-7.34-1.2-15.01-3.76-21.91c-1.47-3.97-3.46-7.83-6.37-11.09c-1.94-2.16-3.76-4.32-6.54-5.68
			c-0.91-0.44-1.9-0.81-2.94-0.87c-1.04-0.07-2.15,0.18-2.92,0.83c-0.11,0.09-0.2,0.18-0.29,0.28
			C38.87,55.59,38.62,56.54,38.66,57.43z"/>
		<path class="st2" d="M22.83,65.53c-1.1,1.66-2.06,3.42-2.89,5.23c-1.09,2.37-1.97,4.86-2.69,7.36c-1.49,5.22-2.36,10.6-2.88,15.99
			c-0.33,3.35-0.22,8.55-4.88,8.48c-2.31-0.04-4.4-1.49-5.56-3.29c-1.16-1.8-1.53-3.92-1.67-5.98c-0.52-7.34,1.2-15.01,3.76-21.91
			c1.47-3.97,3.46-7.83,6.37-11.09c1.94-2.16,3.76-4.32,6.54-5.68c0.91-0.44,1.9-0.81,2.94-0.87c1.04-0.07,2.15,0.18,2.92,0.83
			c0.11,0.09,0.2,0.18,0.29,0.28C27.84,57.97,24.61,62.84,22.83,65.53z"/>
		<path class="st3" d="M18.79,68.33c0.98,4.43,2.03,8.83,2.99,13.26c0.52,2.39,0.17,5.18,0.19,7.62c0.01,2.17-0.23,4.48-0.01,6.63
			c0.25,2.55,0.6,4.21,2.97,5.42c2.03,1.03,4.45,0.58,6.63,0.56c3.53-0.03,7.06-0.22,10.58-0.62c0.9-0.1,1.86-0.26,2.67-0.74
			c0.49-0.28,0.92-0.68,1.25-1.25c0.78-1.33,0.79-2.94,0.87-4.43c0.1-1.71,0.29-3.41,0.59-5.1c0.58-3.24,1.53-6.41,2.79-9.46
			c1.42-3.42,1.56-7.29,0.85-10.93c-0.71-3.64-2.22-7.08-4.01-10.32c-2.58-4.65-7.69-7.25-12.95-7.93
			c-3.85-0.49-7.79,0.16-11.3,1.77c-3.52,1.62-5.02,4.06-5.13,8.07C17.69,63.41,18.24,65.88,18.79,68.33z"/>
		<path class="st3" d="M6.28,70.92c0.85,0.89,2.03,1.67,2.71,2.23c1.62,1.32,3.29,2.57,5.03,3.75c1.33,0.9,2.7,1.74,4.07,2.58
			c1.27,0.78,1.96,0.25,2.41-1.2c0.1-0.34,0.21-0.69,0.31-1.03c0.33,1.45,0.66,2.9,0.97,4.35c0.52,2.39,0.17,5.18,0.19,7.62
			c0.01,2.17-0.23,4.48-0.01,6.63c0.25,2.55,0.6,4.21,2.97,5.42c2.03,1.03,4.45,0.58,6.63,0.56c3.53-0.03,7.06-0.22,10.58-0.62
			c0.9-0.1,1.86-0.26,2.67-0.74c0.49-0.29,0.92-0.68,1.25-1.25c0.78-1.33,0.79-2.94,0.87-4.43c0.09-1.71,0.29-3.41,0.59-5.1
			c0.58-3.24,1.53-6.41,2.79-9.46c0.59-1.44,0.96-2.95,1.14-4.49c1.15-0.83,2.28-1.69,3.38-2.59c0.68-0.56,1.85-1.34,2.71-2.23
			c2.61-2.72-0.95-6.24-2.74-8.4c-2.12-2.58-4.58-4.88-7.29-6.83c-3.51-2.52-7.7-4.07-12-4.46c-2.95-0.27-5.94-0.35-8.87,0.11
			c-2.82,0.44-5.27,1.5-7.79,2.78c-0.89,0.45-1.72,1-2.53,1.58c-2.71,1.95-5.17,4.25-7.29,6.83C7.24,64.68,3.68,68.2,6.28,70.92z"/>
		<path class="st2" d="M30.36,41.36c-0.75-0.29-1.65-0.54-2.32-0.12c-0.58,0.36-0.75,1.06-0.86,1.69c-0.38,2.24-0.47,4.51-0.27,6.77
			c0.21,2.38,0.77,4.83,2.34,6.73c1.82,2.19,6.4,4.12,8.74,1.6c1.07-1.15,1.17-2.89,1-4.45c-0.3-2.77,0.15-5.97-1.96-8.14
			c0,0-0.01-0.01-0.02-0.02C35.31,43.68,32.66,42.26,30.36,41.36z"/>
		<path class="st2" d="M28.95,20.27c-1.64,1.4-2.87,3.22-3.67,5.22c-4.39,10.91,3.82,25.35,16.11,25.3
			c4.4-0.01,8.44-6.25,9.45-10.15c1.14-4.4,1.95-9.64,0.3-14.03C47.85,17.84,36.46,13.88,28.95,20.27z"/>
		<path class="st4" d="M40.13,34.92c-0.67-0.58-1.12,0.5-1.11,1.06c0.01,0.44,0.09,0.88,0.24,1.29c0.12,0.33,0.35,0.69,0.7,0.7
			c0.23,0.01,0.44-0.16,0.55-0.36c0.11-0.2,0.13-0.44,0.13-0.67C40.63,36.46,40.53,35.27,40.13,34.92z"/>
		<path class="st4" d="M47.25,34.9c-0.63-0.55-1.06,0.47-1.05,1c0.01,0.42,0.08,0.83,0.22,1.22c0.11,0.31,0.33,0.65,0.66,0.66
			c0.22,0,0.42-0.15,0.52-0.34c0.1-0.19,0.13-0.42,0.12-0.64C47.73,36.36,47.63,35.23,47.25,34.9z"/>
		<path class="st4" d="M43.81,41.49c-0.18-0.01-0.32-0.16-0.31-0.34c0.01-0.18,0.16-0.31,0.34-0.31c0.38,0.02,0.81,0.04,1.15-0.11
			c0.25-0.12,0.48-0.42,0.39-0.67c-0.06-0.16-0.23-0.29-0.42-0.43c-0.07-0.06-0.15-0.11-0.21-0.17c-0.78-0.66-1.07-1.83-0.69-2.77
			c0.07-0.16,0.25-0.25,0.42-0.18c0.16,0.07,0.25,0.25,0.18,0.42c-0.27,0.68-0.06,1.56,0.51,2.04c0.06,0.05,0.12,0.1,0.19,0.15
			c0.24,0.18,0.52,0.39,0.64,0.73c0.21,0.61-0.2,1.22-0.73,1.47c-0.33,0.15-0.68,0.19-1.01,0.19C44.09,41.5,43.94,41.5,43.81,41.49z
			"/>
		<path class="st3" d="M33.04,16.52c1.2-1.56,1.38-3.64,0.91-5.44c-0.4-1.52-1.01-2.89-2.48-3.73c-2.15-1.22-4.59-0.77-6.9,0.06
			c-2.28,0.82-4.87,2.27-5.58,4.98c-0.82,3.13,1.46,6.43,4.24,7.36c1.92,0.64,4,0.39,5.83-0.41c0.01-0.01,0.02-0.01,0.04-0.02
			C30.54,18.69,32.03,17.83,33.04,16.52z"/>
		<path class="st4" d="M30.73,10.77c1.74-0.03,4.09,0.09,5.13,1.56c0.16,0.23,0.32,0.46,0.4,0.72c0.52,1.75-2.65,3.44-4.02,4.27
			C30,18.69,27.5,19.7,25.07,20.8c-0.73,0.33-1.67,0.86-2.52,0.72c-3.63-0.59-1.92-5.06-0.5-6.78c0.78-0.94,1.92-1.79,3.21-2.47
			C26.99,11.38,28.98,10.8,30.73,10.77z"/>
		<path class="st3" d="M18.51,35.49c0.37,2.54,2.05,4.85,3.94,6.5c0.84,0.74,6.02,4.33,5.88,1.25c-0.02-0.39-0.12-0.85-0.39-1.14
			c-0.27-0.28-0.52-0.52-0.72-0.85c-0.33-0.55-0.55-1.17-0.73-1.79c-0.08-0.29-0.2-0.53-0.15-0.83c0.05-0.31,0.14-0.61,0.3-0.88
			c0.21-0.37,0.54-0.68,0.94-0.84c0.19-0.08,0.41-0.07,0.59-0.14c0.08-0.03,0.15-0.03,0.23-0.04c0.07-0.01,0.13-0.02,0.2-0.02
			c0.07,0,0.14,0.01,0.21,0.03c0.04,0.01,0.08-0.02,0.11-0.03c0.05-0.03,0.1-0.06,0.14-0.1c0.04-0.03,0.07-0.06,0.11-0.1
			c0.02-0.01,0.04-0.04,0.07-0.03c0.02,0.01,0.02,0.03,0.02,0.05c0.09,0.38,0.39,0.67,0.79,0.69c0.24,0.01,0.45-0.11,0.59-0.31
			c0.19-0.28,0.17-0.62,0.17-0.94c0-0.2,0-0.4,0-0.59c0-0.58,0-1.15,0-1.73c0.01-0.57,0.02-1.14,0.06-1.71
			c0.04-0.57,0.09-1.13,0.18-1.69c0.09-0.56,0.21-1.12,0.36-1.67c0.16-0.56,0.37-1.11,0.61-1.64c0.68-1.46,2.33-3.8,4.26-2.44
			c0.44,0.32,0.62,0.88,0.76,1.4c0.33,1.23,0.28,3.36,1.6,3.88c1.5,0.58,2.99,0.48,4.55,0.48c1.71-0.01,3.42-0.06,5.13-0.15
			c1.63-0.08,4.55,0.2,4.94-1.97c0.07-0.41,0.03-0.82-0.02-1.23c-0.53-4.88-2.97-9.55-7.14-12.3c-0.35-0.23-0.7-0.44-1.06-0.64
			c-3.77-2.07-8.58-2.66-12.67-1.34c-1.85,0.6-3.64,0.92-5.39,1.85c-1.7,0.9-3.25,2.08-4.56,3.49c-0.9,0.97-1.67,2.04-2.32,3.2
			C17.55,25.71,17.78,30.5,18.51,35.49z"/>
		<path class="st2" d="M29,35.82c0.79,1.49,0.35,5.23-1.01,6.25c-0.53,0.4-1.25,0.49-1.9,0.34c-0.65-0.15-1.23-0.52-1.72-0.97
			c-1.24-1.12-1.98-2.79-1.98-4.46c0-0.83,0.2-1.71,0.78-2.3C24.62,33.21,28.07,34.06,29,35.82z"/>
		<path class="st4" d="M49.32,33.76c-0.12-0.49-0.43-0.94-0.85-1.21c-0.43-0.27-0.96-0.38-1.46-0.28c-0.17,0.04-0.35-0.08-0.38-0.25
			c-0.03-0.17,0.08-0.35,0.25-0.38c0.66-0.13,1.37,0,1.93,0.37c0.57,0.36,0.98,0.95,1.14,1.61c0.04,0.17-0.07,0.35-0.24,0.39
			c-0.02,0.01-0.05,0.01-0.07,0.01C49.49,34.01,49.36,33.91,49.32,33.76z"/>
		<path class="st4" d="M36.46,34.3c-0.17-0.06-0.25-0.25-0.19-0.41c0.3-0.83,0.93-1.56,1.71-1.98c0.78-0.42,1.72-0.55,2.59-0.36
			c0.17,0.04,0.28,0.21,0.24,0.39c-0.04,0.17-0.21,0.28-0.39,0.24c-0.71-0.16-1.49-0.06-2.14,0.29c-0.64,0.35-1.16,0.94-1.41,1.63
			c-0.05,0.13-0.17,0.21-0.3,0.21C36.53,34.32,36.5,34.31,36.46,34.3z"/>
		<path class="st4" d="M40.84,45.02c-1.06-0.33-1.96-1.09-2.46-2.07c-0.08-0.16-0.02-0.35,0.14-0.44c0.16-0.08,0.35-0.02,0.44,0.14
			c0.43,0.83,1.19,1.47,2.08,1.75c0.89,0.28,1.88,0.19,2.71-0.24c0.16-0.08,0.35-0.02,0.44,0.14c0.08,0.16,0.02,0.35-0.14,0.44
			c-0.6,0.32-1.28,0.48-1.95,0.48C41.67,45.21,41.25,45.15,40.84,45.02z"/>
	</g>
</g>
<g>
	<circle class="st5" cx="36" cy="36" r="36"/>
	<g>
		<defs>
			<circle id="SVGID_3_" cx="36" cy="36" r="36"/>
		</defs>
		<clipPath id="SVGID_4_">
			<use xlink:href="#SVGID_3_"  style="overflow:visible;"/>
		</clipPath>
		<g class="st6">
			<g>
				<g>
					<path class="st7" d="M39.64,53.83c0.09-0.1,0.19-0.2,0.29-0.28c0.77-0.65,1.89-0.9,2.93-0.83c1.05,0.07,2.04,0.43,2.95,0.88
						c2.79,1.36,4.62,3.53,6.57,5.71c2.93,3.27,4.93,7.15,6.41,11.14c2.57,6.94,4.3,14.64,3.78,22.02c-0.15,2.07-0.51,4.2-1.68,6.01
						c-1.16,1.81-3.27,3.27-5.58,3.31c-4.38,0.07-4.62-3.79-4.65-6.72c-0.08-6.21-1.03-12.4-2.8-18.37
						c-1.09-3.69-2.49-7.3-4.19-10.79c-0.85-1.75-1.78-3.46-2.77-5.14c-0.39-0.66-0.91-1.17-1.34-1.78
						c-0.49-0.7-0.69-1.77-0.74-2.59C38.76,55.49,39.01,54.54,39.64,53.83z"/>
					<path class="st7" d="M25.16,53.83c-0.09-0.1-0.19-0.2-0.29-0.28c-0.77-0.65-1.89-0.9-2.93-0.83c-1.05,0.07-2.04,0.43-2.95,0.88
						c-2.79,1.36-4.62,3.53-6.57,5.71C9.48,62.57,7.48,66.45,6,70.44c-2.57,6.94-4.3,14.64-3.78,22.02c0.15,2.07,0.51,4.2,1.68,6.01
						c1.16,1.81,3.27,3.27,5.58,3.31c4.68,0.08,4.57-5.15,4.9-8.52c0.53-5.42,1.4-10.83,2.9-16.07c0.72-2.51,1.61-5.02,2.7-7.4
						c0.84-1.82,1.8-3.59,2.91-5.26C24.69,61.83,27.93,56.93,25.16,53.83z"/>
				</g>
				<path class="st8" d="M18.68,41.3c0.4-2.31,0-4.27-0.32-6.51c-0.65-4.66-0.65-9.5,1.7-13.72c0.65-1.16,1.43-2.24,2.33-3.21
					c1.31-1.42,2.87-2.61,4.58-3.51c1.76-0.93,3.56-1.25,5.41-1.85c4.11-1.33,8.95-0.73,12.74,1.34c0.37,0.2,0.72,0.41,1.07,0.64
					c2.52,1.66,4.46,4.08,5.69,6.82c0.62,1.39,1.11,2.88,1.33,4.39c0.65,4.36,0.04,8.74,0.66,13.11c0.37,2.62,0.45,5.38,1.67,7.79
					c1.37,2.72,2.14,5.72,0.4,8.52c-2.41,3.9-7.97,5.34-11.83,3.12c-0.56-0.32-1.09-0.7-1.58-1.11c-2.79-2.37-4.2-6.16-5.02-9.62
					c-0.93-3.92,0.32-8.91,1.95-12.47c0.52-1.13,1.24-2.09,2.14-2.84c0.84-0.71,1.76-1.35,2.67-1.99c-0.34,0.01-0.67,0.01-1.01,0.01
					c-1.57,0.01-3.07,0.11-4.57-0.48c-1.33-0.52-1.28-2.66-1.61-3.9c-0.14-0.53-0.32-1.09-0.77-1.41c-1.94-1.37-3.6,0.98-4.28,2.45
					c-0.25,0.53-0.45,1.08-0.62,1.64c-0.16,0.55-0.28,1.11-0.37,1.68c-0.09,0.56-0.14,1.13-0.18,1.7c-0.04,0.57-0.05,1.15-0.06,1.72
					c-0.01,0.58,0,1.16,0,1.74c0,0.2,0,0.4,0,0.6c0,0.33,0.02,0.66-0.17,0.95c-0.13,0.2-0.34,0.32-0.59,0.31
					c-0.4-0.02-0.7-0.31-0.79-0.69c0-0.01,0-0.04-0.02-0.05c-0.02-0.01-0.05,0.02-0.07,0.03c-0.04,0.03-0.07,0.06-0.11,0.09
					c-0.05,0.04-0.09,0.07-0.14,0.1c-0.03,0.02-0.08,0.04-0.11,0.03c-0.07-0.02-0.14-0.03-0.21-0.03c-0.07,0-0.13,0-0.2,0.01
					c-0.08,0.01-0.15,0.01-0.23,0.04c-0.19,0.08-0.4,0.07-0.59,0.14c-0.4,0.16-0.73,0.47-0.94,0.84c-0.16,0.27-0.25,0.58-0.3,0.89
					c-0.05,0.3,0.07,0.54,0.15,0.84c0.18,0.62,0.39,1.24,0.73,1.8c0.21,0.34,0.46,0.58,0.73,0.86c0.39,0.41,0.47,1.19,0.63,1.71
					c0.86,2.76,1.77,5.81,1.24,8.72c-0.36,1.94-1.6,3.53-3.33,4.44c-0.87,0.46-1.84,0.74-2.82,0.87c-1.21,0.16-1.78-0.32-2.91-0.55
					c-1.52-0.32-2.97-1.07-4.01-2.23C12.66,50.56,17.9,45.81,18.68,41.3z"/>
				<path class="st9" d="M9.02,61.49c2.13-2.59,4.6-4.9,7.33-6.86c0.81-0.58,1.65-1.14,2.54-1.59c2.53-1.28,4.99-2.35,7.83-2.79
					c2.95-0.46,5.95-0.38,8.92-0.11c4.32,0.4,8.53,1.96,12.06,4.49c2.73,1.96,5.19,4.27,7.33,6.86c1.79,2.18,5.37,5.71,2.75,8.45
					c-0.86,0.89-2.03,1.68-2.72,2.24c-1.11,0.9-2.24,1.77-3.4,2.61c-0.18,1.55-0.55,3.07-1.14,4.51c-1.26,3.06-2.22,6.24-2.8,9.5
					c-0.3,1.69-0.5,3.4-0.6,5.12c-0.08,1.5-0.09,3.11-0.88,4.45c-0.33,0.57-0.77,0.97-1.26,1.26c-0.81,0.47-1.78,0.64-2.68,0.74
					c-3.53,0.41-7.08,0.59-10.63,0.63c-2.19,0.02-4.63,0.48-6.66-0.57c-2.37-1.21-2.73-2.89-2.98-5.45
					c-0.21-2.16,0.03-4.48,0.01-6.66c-0.01-2.45,0.34-5.26-0.19-7.66c-0.32-1.46-0.65-2.91-0.98-4.37c-0.1,0.35-0.21,0.69-0.32,1.04
					c-0.44,1.46-1.15,1.99-2.42,1.21c-1.38-0.84-2.75-1.69-4.09-2.6c-1.74-1.18-3.43-2.43-5.05-3.77c-0.69-0.56-1.86-1.35-2.72-2.24
					C3.65,67.21,7.23,63.67,9.02,61.49z"/>
				<path class="st7" d="M37.15,45.41c0.01,0.01,0.01,0.01,0.02,0.02c2.11,2.17,1.66,5.39,1.97,8.18c0.17,1.57,0.07,3.32-1.01,4.48
					c-2.34,2.53-6.95,0.59-8.78-1.61c-1.58-1.9-2.15-4.36-2.36-6.76c-0.2-2.27-0.1-4.56,0.27-6.81c0.11-0.64,0.28-1.34,0.86-1.7
					c0.68-0.42,1.58-0.17,2.33,0.12C32.77,42.23,35.43,43.65,37.15,45.41z"/>
				<g>
					<path class="st10" d="M20.88,51.91c0.33-0.23,2.25-1.45,2.98-1.66c1.06-0.31,2.22-0.36,3.27,0.07
						c1.76,0.72,3.48,2.27,4.44,3.26c0.87,0.89,3.72,3.93,4.84,5.65c0.05,0.08,0.17,0.06,0.19-0.04c0.21-1,0.71-3.2,0.78-4.05
						c0.11-1.33,0.09-2.67,0.07-4.01c-0.01-0.42-0.01-0.84-0.02-1.26c0-0.4-0.16-0.75,0.35-0.78c1.85-0.09,4.13,1.31,5.55,2.26
						c0.12,0.08,0.24,0.17,0.28,0.3c0.08,0.26-0.18,0.48-0.41,0.64c-1.17,0.84-2.05,1.96-2.76,3.15c-0.79,1.3-1.68,2.55-2.55,3.8
						c-0.26,0.38-0.52,0.87-0.92,1.11c-0.32,0.19-0.93-0.13-1.23-0.24c-0.63-0.24-1.26-0.51-1.88-0.78
						c-0.83-0.36-1.65-0.74-2.48-1.12c-0.93-0.43-1.86-0.87-2.79-1.31c-0.94-0.45-1.88-0.9-2.81-1.35c-0.85-0.41-1.7-0.83-2.55-1.24
						c-0.67-0.33-1.34-0.66-2-0.99c-0.08-0.04-0.15-0.08-0.23-0.11C20.48,52.94,20.41,52.24,20.88,51.91z"/>
				</g>
				<g>
					<path class="st7" d="M51.26,26.57c1.65,4.41,0.83,9.68-0.31,14.1c-1.01,3.92-5.07,10.19-9.5,10.2
						c-12.35,0.04-20.6-14.46-16.19-25.43c0.81-2.01,2.04-3.84,3.69-5.25C36.51,13.77,47.96,17.74,51.26,26.57z"/>
				</g>
				<path class="st8" d="M20.07,21.07c0.65-1.16,1.43-2.24,2.33-3.21c1.31-1.42,2.87-2.61,4.58-3.51c1.76-0.93,3.56-1.25,5.41-1.85
					c4.11-1.33,8.95-0.73,12.74,1.34c0.37,0.2,0.72,0.41,1.07,0.64c4.19,2.77,6.65,7.46,7.18,12.36c0.04,0.41,0.09,0.83,0.02,1.24
					c-0.39,2.18-3.32,1.9-4.96,1.98c-1.72,0.09-3.44,0.14-5.16,0.15c-1.57,0.01-3.07,0.11-4.57-0.48c-1.33-0.52-1.28-2.66-1.61-3.9
					c-0.14-0.53-0.32-1.09-0.77-1.41c-1.94-1.37-3.6,0.98-4.28,2.45c-0.25,0.53-0.45,1.08-0.62,1.64c-0.16,0.55-0.28,1.11-0.37,1.68
					c-0.09,0.56-0.14,1.13-0.18,1.7c-0.04,0.57-0.05,1.15-0.06,1.72c-0.01,0.58,0,1.16,0,1.74c0,0.2,0,0.4,0,0.6
					c0,0.33,0.02,0.66-0.17,0.95c-0.13,0.2-0.34,0.32-0.59,0.31c-0.4-0.02-0.7-0.31-0.79-0.69c0-0.01,0-0.04-0.02-0.05
					c-0.02-0.01-0.05,0.02-0.07,0.03c-0.04,0.03-0.07,0.06-0.11,0.09c-0.05,0.04-0.09,0.07-0.14,0.1c-0.03,0.02-0.08,0.04-0.11,0.03
					c-0.07-0.02-0.14-0.03-0.21-0.03c-0.07,0-0.13,0-0.2,0.01c-0.08,0.01-0.15,0.01-0.23,0.04c-0.19,0.08-0.4,0.07-0.59,0.14
					c-0.4,0.16-0.73,0.47-0.94,0.84c-0.16,0.27-0.25,0.58-0.3,0.89c-0.05,0.3,0.07,0.54,0.15,0.84c0.18,0.62,0.39,1.24,0.73,1.8
					c0.21,0.34,0.46,0.58,0.73,0.86c0.39,0.41,0.47,1.19,0.63,1.71c0.79,2.53,1.51,5.17,1.34,7.84c-0.15,2.47-1.21,4.14-3.44,5.32
					c-0.87,0.46-1.84,0.74-2.82,0.87c-1.21,0.16-1.78-0.32-2.91-0.55c-1.52-0.32-2.97-1.07-4.01-2.23
					c-4.07-4.52,1.17-9.28,1.95-13.79c0.4-2.31,0-4.27-0.32-6.51C17.71,30.13,17.71,25.28,20.07,21.07z"/>
				<path class="st7" d="M23.15,34.68c-0.59,0.59-0.79,1.48-0.79,2.31c0,1.68,0.74,3.35,1.99,4.49c0.5,0.45,1.08,0.82,1.73,0.97
					S27.46,42.5,28,42.1c1.37-1.03,1.81-4.79,1.01-6.28C28.07,34.05,24.61,33.2,23.15,34.68z"/>
				<g>
					<path class="st11" d="M40.7,36.93c0,0.23-0.02,0.47-0.13,0.68c-0.11,0.2-0.32,0.37-0.55,0.36c-0.35-0.01-0.58-0.37-0.7-0.7
						c-0.15-0.42-0.23-0.86-0.24-1.3c-0.01-0.56,0.45-1.65,1.12-1.06C40.6,35.26,40.69,36.46,40.7,36.93z"/>
				</g>
				<g>
					<path class="st11" d="M47.83,36.81c0,0.22-0.02,0.45-0.12,0.64c-0.1,0.19-0.3,0.35-0.52,0.34c-0.33-0.01-0.55-0.35-0.66-0.66
						c-0.14-0.39-0.22-0.81-0.23-1.23c-0.01-0.53,0.42-1.56,1.06-1.01C47.74,35.23,47.83,36.36,47.83,36.81z"/>
				</g>
				<g>
					<path class="st11" d="M44.33,41.53c0.33,0,0.69-0.04,1.02-0.19c0.53-0.25,0.95-0.87,0.73-1.48c-0.12-0.35-0.4-0.55-0.64-0.74
						c-0.06-0.05-0.13-0.1-0.19-0.15c-0.57-0.48-0.79-1.36-0.51-2.05c0.07-0.17-0.01-0.36-0.18-0.42c-0.17-0.07-0.36,0.01-0.42,0.18
						c-0.38,0.95-0.09,2.12,0.69,2.79c0.07,0.06,0.14,0.11,0.21,0.17c0.19,0.14,0.36,0.27,0.42,0.44c0.09,0.25-0.14,0.55-0.39,0.67
						c-0.34,0.16-0.77,0.13-1.16,0.11c-0.18,0-0.33,0.13-0.34,0.31c-0.01,0.18,0.13,0.33,0.31,0.34
						C44.03,41.52,44.18,41.53,44.33,41.53z"/>
				</g>
				<circle class="st12" cx="49.74" cy="36.06" r="4.34"/>
				<circle class="st12" cx="38.46" cy="36.06" r="4.34"/>
				<path class="st4" d="M49.32,33.76c-0.12-0.49-0.43-0.94-0.85-1.21c-0.43-0.27-0.96-0.38-1.46-0.28
					c-0.17,0.04-0.35-0.08-0.38-0.25c-0.03-0.17,0.08-0.35,0.25-0.38c0.66-0.13,1.37,0,1.93,0.37c0.57,0.36,0.98,0.95,1.14,1.61
					c0.04,0.17-0.07,0.35-0.24,0.39c-0.02,0.01-0.05,0.01-0.07,0.01C49.49,34.01,49.36,33.91,49.32,33.76z"/>
				<path class="st4" d="M36.46,34.3c-0.17-0.06-0.25-0.25-0.19-0.41c0.3-0.83,0.93-1.56,1.71-1.98c0.78-0.42,1.72-0.55,2.59-0.36
					c0.17,0.04,0.28,0.21,0.24,0.39c-0.04,0.17-0.21,0.28-0.39,0.24c-0.71-0.16-1.49-0.06-2.14,0.29c-0.64,0.35-1.16,0.94-1.41,1.63
					c-0.05,0.13-0.17,0.21-0.3,0.21C36.53,34.32,36.5,34.31,36.46,34.3z"/>
				<path class="st4" d="M40.84,45.02c-1.06-0.33-1.96-1.09-2.46-2.07c-0.08-0.16-0.02-0.35,0.14-0.44
					c0.16-0.08,0.35-0.02,0.44,0.14c0.43,0.83,1.19,1.47,2.08,1.75c0.89,0.28,1.88,0.19,2.71-0.24c0.16-0.08,0.35-0.02,0.44,0.14
					c0.08,0.16,0.02,0.35-0.14,0.44c-0.6,0.32-1.28,0.48-1.95,0.48C41.67,45.21,41.25,45.15,40.84,45.02z"/>
			</g>
		</g>
	</g>
</g>
</svg>
