<svg width="200" height="264" viewBox="0 0 200 264" fill="none" xmlns="http://www.w3.org/2000/svg">
<path d="M159.946 200.976C160.103 200.687 160.28 200.374 160.536 200.191C160.771 200.02 161.01 200.008 161.224 200.004C166.505 199.906 171.101 201.615 174.383 204.893C165.887 211.823 160.54 220.779 156.48 230.479C146.586 231.236 155.531 209.159 159.946 200.976Z" fill="#FF5777" fill-opacity="0.6"/>
<path d="M194.771 218.545C197.055 223.572 198.811 228.847 199.999 234.24C188.435 232.919 176.637 234.684 166.051 239.312C165.936 239.361 166.229 233.081 166.979 231.995C168.813 229.344 172.494 227.168 175.145 225.5C181.073 221.762 187.809 219.346 194.771 218.545Z" fill="#3C50A5" fill-opacity="0.6"/>
<path d="M184.453 250.261C182.33 252.116 180.265 254.031 178.266 256C174.898 250.997 169.094 249.529 163.421 247.613C163.846 242.712 168.987 244.091 172.581 244.941C173.678 245.202 184.936 249.838 184.453 250.261Z" fill="#FF5777" fill-opacity="0.6"/>
<path d="M40.0521 200.976C39.8954 200.687 39.7182 200.374 39.4626 200.191C39.2276 200.02 38.9885 200.008 38.7742 200.004C33.4935 199.906 28.8971 201.615 25.6157 204.893C34.1118 211.823 39.4585 220.779 43.5189 230.479C53.4125 231.236 44.4671 209.159 40.0521 200.976Z" fill="#FF5777" fill-opacity="0.6"/>
<path d="M5.2271 218.545C2.94333 223.572 1.18723 228.847 0 234.24C11.5631 232.919 23.3612 234.684 33.9473 239.312C34.0627 239.361 33.77 233.081 33.0197 231.995C31.1853 229.344 27.5041 227.168 24.8534 225.5C18.9255 221.762 12.1897 219.346 5.2271 218.545Z" fill="#3C50A5" fill-opacity="0.6"/>
<path d="M15.5451 250.261C17.6681 252.116 19.7334 254.031 21.7327 256C25.1006 250.997 30.9048 249.529 36.5771 247.613C36.1525 242.712 31.012 244.091 27.4174 244.941C26.3208 245.202 15.0628 249.838 15.5451 250.261Z" fill="#FF5777" fill-opacity="0.6"/>
<circle cx="100" cy="100" r="100" fill="#3C50A5" fill-opacity="0.1"/>
<path d="M43.6701 41.3781L44.7774 47.5358C44.8796 48.1333 45.3226 48.6312 45.9188 48.8138L50.8422 50.4237C52.3924 50.9382 52.3924 53.0627 50.8422 53.5772L45.9188 55.1872C45.3226 55.3864 44.8967 55.8677 44.7774 56.4652L43.6701 62.6229C43.3464 64.4486 40.6377 64.4486 40.3141 62.6229L39.2067 56.4652C39.1045 55.8677 38.6616 55.3864 38.0824 55.1872L33.159 53.5772C31.6088 53.0627 31.6088 50.9382 33.159 50.4237L38.0824 48.8138C38.6786 48.6146 39.1045 48.1333 39.2238 47.5358L40.3311 41.3781C40.6548 39.5358 43.3464 39.5358 43.6701 41.3781Z" fill="#3C50A5" fill-opacity="0.6"/>
<path d="M56.1697 56.9192L56.9448 61.0243C57.0164 61.4227 57.3264 61.7546 57.7438 61.8763L61.1901 62.9496C62.2753 63.2927 62.2753 64.709 61.1901 65.052L57.7438 66.1253C57.3264 66.2581 57.0283 66.579 56.9448 66.9773L56.1697 71.0824C55.9431 72.2996 54.047 72.2996 53.8204 71.0824L53.0453 66.9773C52.9738 66.579 52.6637 66.2581 52.2583 66.1253L48.8119 65.052C47.7268 64.709 47.7268 63.2927 48.8119 62.9496L52.2583 61.8763C52.6756 61.7436 52.9738 61.4227 53.0572 61.0243L53.8324 56.9192C54.0589 55.691 55.9431 55.691 56.1697 56.9192Z" fill="#3C50A5" fill-opacity="0.6"/>
<mask id="mask0" mask-type="alpha" maskUnits="userSpaceOnUse" x="0" y="0" width="200" height="200">
<circle cx="100" cy="100" r="100" fill="#E0E0E0"/>
</mask>
<g mask="url(#mask0)">
<path d="M45.5701 95.7739C45.5901 95.4839 45.6101 95.1939 45.6201 94.8939C45.7301 91.0039 44.9601 87.1339 45.1301 83.1239C45.2501 80.4339 45.0101 74.6139 41.8301 73.3939C38.9601 72.2939 39.0501 76.9639 38.8301 78.5839C38.4601 81.3439 38.0801 84.1039 37.7101 86.8639C36.9601 92.3839 36.2201 97.9139 35.4701 103.434C35.0601 106.444 33.5501 112.904 38.7301 109.564C39.8401 108.854 40.7001 107.814 41.4601 106.734C43.7201 103.544 45.2701 99.7139 45.5701 95.7739Z" fill="#FFC9C9"/>
<path d="M30.1501 88.3239C29.8801 89.6639 29.8901 90.9739 30.9101 92.2339C31.8401 93.3839 33.1201 93.9239 34.4701 94.4039C35.9601 94.9339 37.4801 95.3939 39.0201 95.8239C41.6501 96.5539 44.2801 97.3139 46.9501 97.9039C49.0601 98.3739 51.5601 99.2639 53.6101 98.2039C55.8401 97.0439 56.4401 94.2839 57.1301 92.0739C57.6001 90.5639 58.0401 89.0439 58.4601 87.5239C58.7801 86.3439 59.2301 84.9839 58.9901 83.7439C58.7801 82.6939 57.8701 81.7839 56.9301 81.3439C56.0701 80.9439 55.1401 80.7139 54.2401 80.4239C52.4001 79.8239 50.5501 79.2739 48.7001 78.7339C46.4001 78.0639 44.1001 77.4239 41.7801 76.8339C40.3401 76.4639 38.8801 76.0239 37.4101 75.8339C35.3701 75.5639 33.8701 76.3639 33.2101 78.3439C32.3601 80.8839 31.4901 83.4239 30.7801 86.0039C30.5601 86.7839 30.3101 87.5639 30.1501 88.3239Z" fill="#FF5777"/>
<path d="M33.3801 80.7839C41.4501 82.5139 49.5801 85.0239 57.1801 88.1939" stroke="white" stroke-width="1.1853" stroke-miterlimit="10" stroke-linecap="round" stroke-linejoin="round"/>
<path d="M112.09 117.254C111.93 117.044 111.75 116.844 111.56 116.654C110.15 115.264 108.01 114.604 105.96 114.594C103.91 114.584 101.92 115.134 100.07 115.864C94.4201 118.104 90.5201 122.064 86.4001 126.024C81.4301 130.794 77.8501 136.684 74.5701 142.684C73.1301 145.314 72.1701 148.314 70.2501 150.664C68.1301 153.274 65.2501 151.464 63.5001 149.214C60.4001 145.214 57.8301 139.454 55.9601 134.764C53.6101 128.854 51.7201 122.534 52.4601 116.104C52.7401 113.654 53.3901 111.254 53.4701 108.784C53.5501 106.464 53.1001 104.124 52.1801 101.994C51.0801 99.4339 49.2901 97.1439 48.7301 94.4139C48.0301 90.9639 49.4001 87.4939 50.3301 84.1039C51.0501 81.5039 52.1301 75.7939 49.3001 73.8839C46.7501 72.1639 45.7901 76.7439 45.2101 78.2739C44.2301 80.8839 43.2401 83.4839 42.2601 86.0939C40.2901 91.3039 38.3201 96.5238 36.3501 101.734C35.3901 104.324 34.4001 106.934 34.0001 109.674C33.1901 115.114 35.1301 120.074 36.5601 125.194C38.0201 130.414 38.4801 135.874 40.0901 141.054C41.9401 147.024 42.8101 153.204 44.9901 159.134C48.4901 168.674 52.1701 181.014 62.6801 184.354C69.9501 186.664 78.4601 184.434 83.6601 178.854C88.5701 173.584 90.1801 167.164 92.6701 160.634C95.3501 153.594 98.6201 146.754 102.46 140.194C104.38 136.914 106.44 133.704 108.64 130.574C109.5 129.344 110.59 128.434 111.52 127.304C112.59 126.004 113.14 123.954 113.34 122.364C113.56 120.614 113.22 118.724 112.09 117.254Z" fill="#FFC9C9"/>
<path d="M151.41 128.034C151.2 120.134 148.24 115.344 141.32 112.154C134.4 108.964 126.65 107.694 119.08 108.664C108.73 109.984 98.6801 115.104 93.6101 124.254C90.0801 130.634 87.1001 137.394 85.7201 144.554C84.3401 151.714 84.6101 159.314 87.4001 166.044C89.8701 172.024 91.7501 178.264 92.8801 184.644C93.4701 187.954 93.8601 191.304 94.0501 194.664C94.2101 197.594 94.2301 200.744 95.7701 203.374C96.4201 204.484 97.2701 205.274 98.2401 205.834C99.8301 206.764 101.72 207.084 103.49 207.284C110.39 208.074 117.34 208.444 124.29 208.514C128.57 208.554 133.34 209.444 137.33 207.404C141.98 205.034 142.67 201.754 143.17 196.744C143.59 192.514 143.12 187.974 143.14 183.714C143.17 178.924 142.48 173.424 143.51 168.734C145.41 160.024 147.47 151.354 149.4 142.654C150.46 137.834 151.54 132.964 151.41 128.034Z" fill="#3C50A5"/>
<path d="M136.82 116.144C137 115.944 137.19 115.764 137.39 115.584C138.9 114.314 141.08 113.814 143.13 113.954C145.18 114.094 147.11 114.804 148.91 115.674C154.38 118.334 157.96 122.584 161.77 126.844C167.5 133.244 171.41 140.834 174.31 148.654C179.33 162.234 182.72 177.314 181.7 191.754C181.41 195.814 180.69 199.964 178.41 203.514C176.13 207.064 172.02 209.914 167.48 209.994C158.32 210.144 158.53 199.904 157.89 193.324C156.85 182.714 155.15 172.124 152.21 161.864C150.81 156.954 149.07 152.044 146.93 147.384C145.29 143.814 143.41 140.364 141.24 137.094C137.74 131.794 131.39 122.204 136.82 116.144Z" fill="#FFC9C9"/>
<path d="M103.84 125.114C103.06 130.704 103.46 136.394 104.2 141.984C104.59 144.944 105.57 148.474 108.35 149.194C110.21 149.674 112.1 148.614 113.66 147.454C122.53 140.824 127.43 130.014 131.98 119.684C132.81 117.794 133.65 115.874 133.93 113.814C134.21 111.754 133.85 109.504 132.53 107.954C130.54 105.624 127.1 105.514 124.13 105.934C119.66 106.564 113.69 107.884 109.92 110.644C106.06 113.454 104.47 120.594 103.84 125.114Z" stroke="#FF5777" stroke-width="1.2741" stroke-miterlimit="10"/>
<path d="M105.78 148.144C104.77 148.114 103.82 148.294 103.04 149.194C102.33 150.014 102.1 151.014 101.93 152.054C101.74 153.204 101.6 154.374 101.49 155.534C101.3 157.534 101.09 159.544 101.01 161.554C100.94 163.144 100.62 165.074 101.65 166.424C102.78 167.894 104.86 167.974 106.55 168.184C107.71 168.334 108.86 168.454 110.02 168.564C110.91 168.644 111.97 168.794 112.83 168.464C113.56 168.174 114.1 167.404 114.3 166.654C114.48 165.974 114.52 165.274 114.62 164.584C114.81 163.174 114.98 161.764 115.13 160.344C115.32 158.594 115.48 156.834 115.62 155.074C115.7 153.984 115.83 152.864 115.78 151.774C115.71 150.254 114.94 149.274 113.42 149.054C111.47 148.764 109.52 148.464 107.55 148.284C106.96 148.244 106.36 148.164 105.78 148.144Z" fill="#FF5777"/>
<path d="M113.53 97.5939C113.52 97.6039 113.51 97.6139 113.49 97.6339C109.35 101.894 110.23 108.174 109.64 113.634C109.31 116.704 109.51 120.134 111.61 122.394C116.2 127.344 125.21 123.554 128.79 119.244C131.88 115.524 133 110.704 133.4 106.014C133.78 101.574 133.6 97.0939 132.86 92.6939C132.65 91.4439 132.3 90.0639 131.17 89.3639C129.84 88.5439 128.07 89.0339 126.61 89.6039C122.09 91.3739 116.89 94.1639 113.53 97.5939Z" fill="#FFC9C9"/>
<path d="M85.6702 60.4239C82.4402 69.0539 84.0403 79.3639 86.2703 88.0139C88.2503 95.6839 96.2003 107.954 104.86 107.984C129.03 108.064 145.17 79.6739 136.55 58.2039C134.97 54.2739 132.55 50.6839 129.32 47.9339C114.55 35.3739 92.1402 43.1439 85.6702 60.4239Z" fill="#FFC9C9"/>
<path d="M95.5702 36.7539C96.2502 36.3039 96.9502 35.8839 97.6602 35.4939C105.08 31.4339 114.54 30.2539 122.59 32.8639C126.22 34.0439 129.75 34.6839 133.19 36.4939C136.54 38.2639 139.59 40.5839 142.16 43.3639C143.92 45.2739 145.45 47.3939 146.72 49.6539C151.75 58.6339 151.28 68.0639 149.86 77.8639C149.14 82.8639 145.83 87.4039 142.11 90.6439C140.45 92.0939 130.26 99.1639 130.54 93.1139C130.6 91.8939 131.27 90.7939 131.83 89.7039C135.24 83.0139 134.49 74.5639 130.49 68.2139C126.49 61.8639 119.53 57.6239 112.14 56.2839C106.88 55.3339 101.43 55.7839 96.3202 57.2839C93.7402 58.0339 91.4002 59.2039 88.9202 60.2039C87.1502 60.9239 84.3402 61.4139 83.1602 59.4039C82.4102 58.1339 82.5702 56.5439 82.8702 55.1039C84.4002 47.6139 89.1902 40.9639 95.5702 36.7539Z" fill="#3C50A5"/>
<path d="M118.92 63.9239C122.38 66.0239 125.5 68.6739 128.26 71.6339C130.94 74.5239 133 78.0739 134.66 81.6539C135.36 83.1639 135.95 84.7239 136.51 86.2939C137.32 88.5639 137.61 90.9039 137.75 93.2939C137.76 93.4239 137.77 93.5639 137.85 93.6639C138.05 93.9339 138.48 93.7739 138.76 93.5839C141.12 91.9439 142.94 89.5339 143.86 86.8039C145.5 81.9139 143.79 76.6039 141.74 72.1039C139.87 67.9739 137.26 64.1639 134.06 60.9439C129.99 56.8439 124.96 53.6939 119.5 51.7939C110.47 48.6539 100.43 48.0039 91.5302 51.9839C87.7002 53.6939 84.8302 57.2539 84.0502 61.2439C83.9402 61.8339 83.9902 62.9939 84.7402 63.1739C85.2202 63.2939 85.9602 62.7339 86.3702 62.5139C86.9602 62.1939 87.5302 61.8439 88.1202 61.5239C90.1702 60.4139 92.4102 59.7039 94.6902 59.2739C95.6302 59.1039 96.5702 58.9739 97.5202 58.9139C98.0102 58.8739 99.8402 58.8039 100.26 58.7939C104.53 58.7039 108.82 59.4739 112.82 60.9539C113.91 61.3539 114.97 61.8139 116.01 62.3239C117 62.8139 117.97 63.3439 118.92 63.9239Z" fill="#FF5777"/>
<path d="M128.57 27.6639C130.09 26.0939 132.02 24.9139 134.19 24.3839C138.77 23.2539 143.73 24.7139 147.52 27.5139C152.95 31.5239 156.99 38.4639 159.28 44.6939C161.86 51.7039 162.98 59.1539 163.4 66.5939C164.31 82.3939 158.07 97.6239 145.19 107.714C144.79 108.024 144.38 108.324 143.97 108.614C141.32 110.454 138.31 111.884 135.14 112.524C133.58 112.844 131.97 112.964 130.39 112.784C129.61 112.694 128.83 112.544 128.08 112.304C127.4 112.094 126.46 111.844 125.98 111.294C125.82 111.114 125.71 110.864 125.75 110.614C125.8 110.354 126 110.154 126.22 109.994C127.17 109.284 128.08 108.474 129.01 107.724C129.98 106.934 130.94 106.124 131.85 105.254C134.22 102.994 136.2 100.284 137.83 97.5039C141.06 92.0039 142.89 85.7439 143 79.4139C143.13 71.8839 140.83 64.3239 136.59 57.9139C134.47 54.7039 131.62 52.0939 129.59 48.8639C127.41 45.3839 125.52 41.6039 125.05 37.5539C124.64 33.9139 126.06 30.2539 128.57 27.6639Z" fill="#3C50A5"/>
<path d="M140.69 76.2839C141.84 77.4439 142.23 79.1739 142.23 80.8039C142.23 84.1039 140.78 87.3739 138.34 89.5839C137.37 90.4639 136.23 91.1939 134.95 91.4839C133.67 91.7739 132.25 91.5939 131.2 90.8039C128.52 88.7939 127.66 81.4239 129.21 78.5039C131.06 75.0639 137.83 73.3839 140.69 76.2839Z" fill="#FFC9C9"/>
<path d="M104.71 72.4539C106.71 69.3939 110.88 67.9539 114.34 69.1239" stroke="#3C50A5" stroke-width="1.2741" stroke-miterlimit="10" stroke-linecap="round" stroke-linejoin="round"/>
<path d="M94.6201 72.4439C93.4801 70.9939 91.7001 70.0539 89.8501 69.9339" stroke="#3C50A5" stroke-width="1.2741" stroke-miterlimit="10" stroke-linecap="round" stroke-linejoin="round"/>
<path d="M106.8 80.8739C106.93 81.2839 107.11 81.6939 107.42 81.9839C107.73 82.2839 108.2 82.4439 108.6 82.3039C109.21 82.0839 109.41 81.3139 109.42 80.6639C109.44 79.8439 109.33 79.0239 109.08 78.2339C108.77 77.2439 107.33 75.5939 106.49 77.0139C106 77.8639 106.53 80.0339 106.8 80.8739Z" fill="#3C50A5"/>
<path d="M93.0301 80.8739C93.2401 81.4439 93.6201 82.0739 94.2201 82.0739C94.6201 82.0739 94.9801 81.7539 95.1201 81.3739C95.2701 80.9939 95.2501 80.5739 95.1901 80.1739C95.0801 79.3839 94.1501 76.0439 92.9101 76.3339C91.6201 76.6339 92.7601 80.1339 93.0301 80.8739Z" fill="#3C50A5"/>
<path d="M99.0101 80.4539C99.6601 82.0639 99.1601 84.0639 97.8301 85.1839C97.3001 85.6339 96.6301 85.9939 96.4001 86.6439C96.1101 87.4639 96.7201 88.3839 97.5001 88.7539C98.2901 89.1239 99.2001 89.0839 100.06 89.0339" stroke="#3C50A5" stroke-width="1.2741" stroke-miterlimit="10" stroke-linecap="round" stroke-linejoin="round"/>
<path d="M101.4 95.2239C106.63 94.8239 111.49 91.2939 113.49 86.4539" stroke="#3C50A5" stroke-width="1.2741" stroke-miterlimit="10" stroke-linecap="round" stroke-linejoin="round"/>
<path d="M84.4202 74.5439C82.2802 76.0839 82.6602 78.9439 84.1602 81.8239C86.2802 85.8939 91.9802 87.2339 94.9202 83.2939C96.0902 81.7239 96.5902 79.7239 96.7102 77.7639C96.7602 76.9439 96.7402 76.0939 96.4002 75.3539C95.1402 72.5339 89.1402 73.1439 86.8102 73.5939C85.8002 73.7939 85.0102 74.1139 84.4202 74.5439Z" fill="#3C50A5"/>
<path d="M102.68 74.5439C100.54 76.0839 100.92 78.9439 102.42 81.8239C104.54 85.8939 110.24 87.2339 113.18 83.2939C114.35 81.7239 114.85 79.7239 114.97 77.7639C115.02 76.9439 115 76.0939 114.66 75.3539C113.4 72.5339 107.4 73.1439 105.07 73.5939C104.06 73.7939 103.27 74.1139 102.68 74.5439Z" fill="#3C50A5"/>
<path d="M94.3701 78.2239C97.0801 76.8539 100.46 76.9139 103.11 78.3739" stroke="#3C50A5" stroke-width="2.5482" stroke-miterlimit="10" stroke-linecap="round" stroke-linejoin="round"/>
</g>
<path d="M75.2358 237.984H72.0438V254.088H75.2358V237.984ZM70.4118 248.232C66.8118 247.08 65.2758 244.248 65.2758 241.32V239.184H62.0598V241.32C62.0598 244.272 60.4758 247.368 56.8038 248.616L58.4118 251.136C60.9798 250.248 62.7078 248.448 63.7158 246.216C64.6758 248.28 66.3558 249.912 68.8038 250.752L70.4118 248.232ZM63.6918 257.16V252.552H60.5238V259.68H75.7878V257.16H63.6918ZM90.8339 243.864V246.408H94.2659V251.304H97.4339V237.96H94.2659V243.864H90.8339ZM92.2259 248.184C88.6979 247.248 87.1139 245.016 87.0659 242.736H91.4339V240.24H87.0659V237.888H83.8979V240.24H79.5779V242.736H83.8979C83.8499 245.208 82.3139 247.704 78.8099 248.712L80.2979 251.16C82.8659 250.416 84.5939 248.856 85.5779 246.84C86.5859 248.592 88.3139 249.96 90.7859 250.608L92.2259 248.184ZM89.9699 257.64C87.0419 257.64 85.5539 257.088 85.5539 255.888C85.5539 254.688 87.0419 254.112 89.9699 254.112C92.8499 254.112 94.3619 254.688 94.3619 255.888C94.3619 257.088 92.8499 257.64 89.9699 257.64ZM89.9699 251.688C85.2659 251.688 82.3859 253.224 82.3859 255.888C82.3859 258.528 85.2659 260.064 89.9699 260.064C94.6499 260.064 97.5299 258.528 97.5299 255.888C97.5299 253.224 94.6499 251.688 89.9699 251.688ZM105.064 243.336C105.064 241.992 106.096 241.224 107.608 241.224C109.12 241.224 110.2 241.992 110.2 243.336C110.2 244.68 109.12 245.448 107.608 245.448C106.096 245.448 105.064 244.68 105.064 243.336ZM114.232 248.808C112.648 249.048 110.92 249.168 109.216 249.264V247.68C111.568 247.152 113.128 245.496 113.128 243.336C113.128 240.696 110.824 238.848 107.608 238.848C104.416 238.848 102.112 240.696 102.112 243.336C102.112 245.52 103.696 247.176 106.048 247.68V249.384C104.224 249.432 102.472 249.432 100.96 249.432L101.344 251.952C104.992 251.952 109.96 251.88 114.424 251.04L114.232 248.808ZM107.008 253.392H103.84V259.68H119.296V257.16H107.008V253.392ZM118.552 244.896V237.96H115.384V254.832H118.552V247.512H121.336V244.896H118.552ZM131.294 251.664H135.158V255.048H131.294V251.664ZM138.278 255.048V251.664H141.374V249.144H128.558V246.72H140.87V239.376H125.39V241.896H137.75V244.248H125.414V251.664H128.174V255.048H123.086V257.64H143.126V255.048H138.278Z" fill="#3C50A5"/>
</svg>
