<?xml version="1.0" encoding="utf-8"?>
<!-- Generator: Adobe Illustrator 25.0.0, SVG Export Plug-In . SVG Version: 6.00 Build 0)  -->
<svg version="1.1" id="레이어_1" xmlns="http://www.w3.org/2000/svg" xmlns:xlink="http://www.w3.org/1999/xlink" x="0px"
	 y="0px" viewBox="0 0 375 410" style="enable-background:new 0 0 375 410;" xml:space="preserve">
<style type="text/css">
	.st0{fill:#3F4FA5;}
	.st1{fill:#FF5777;}
	.st2{fill:#FFFFFF;}
	.st3{fill:#828282;}
</style>
<path class="st0" d="M76,117h32c2.21,0,4,1.79,4,4v200c0,2.21-1.79,4-4,4H76c-2.21,0-4-1.79-4-4V121C72,118.79,73.79,117,76,117z"/>
<path class="st0" d="M76,117h32c2.21,0,4,1.79,4,4v32c0,2.21-1.79,4-4,4H76c-2.21,0-4-1.79-4-4v-32C72,118.79,73.79,117,76,117z"/>
<path class="st0" d="M76,149h32c2.21,0,4,1.79,4,4v80c0,2.21-1.79,4-4,4H76c-2.21,0-4-1.79-4-4v-80C72,150.79,73.79,149,76,149z"/>
<path class="st0" d="M76,205h32c2.21,0,4,1.79,4,4v80c0,2.21-1.79,4-4,4H76c-2.21,0-4-1.79-4-4v-80C72,206.79,73.79,205,76,205z"/>
<path class="st0" d="M76,285h32c2.21,0,4,1.79,4,4v32c0,2.21-1.79,4-4,4H76c-2.21,0-4-1.79-4-4v-32C72,286.79,73.79,285,76,285z"/>
<circle class="st1" cx="236" cy="137" r="20"/>
<path class="st2" d="M83.89,256h7.12v-1.9h-2.22v-9.95h-1.74c-0.75,0.48-1.57,0.78-2.75,1.01v1.46h2.14v7.49h-2.54V256z
	 M96.7,256.22c2.4,0,3.98-1.38,3.98-3.17c0-1.62-0.9-2.58-1.98-3.17v-0.08c0.78-0.56,1.52-1.54,1.52-2.7c0-1.89-1.34-3.15-3.44-3.15
	c-2.05,0-3.57,1.22-3.57,3.12c0,1.26,0.66,2.16,1.57,2.82v0.08c-1.1,0.58-2.03,1.57-2.03,3.09
	C92.75,254.91,94.45,256.22,96.7,256.22z M97.46,249.23c-1.25-0.5-2.16-1.04-2.16-2.16c0-0.94,0.64-1.47,1.44-1.47
	c0.99,0,1.57,0.69,1.57,1.65C98.3,247.95,98.03,248.62,97.46,249.23z M96.77,254.56c-1.1,0-1.98-0.69-1.98-1.76
	c0-0.88,0.45-1.68,1.09-2.19c1.54,0.62,2.62,1.14,2.62,2.37C98.5,254,97.78,254.56,96.77,254.56z"/>
<path class="st2" d="M83.89,200h7.12v-1.9h-2.22v-9.95h-1.74c-0.75,0.48-1.57,0.78-2.75,1.01v1.46h2.14v7.49h-2.54V200z M93.31,200
	h7.12v-1.9h-2.22v-9.95h-1.74c-0.75,0.48-1.57,0.78-2.75,1.01v1.46h2.14v7.49h-2.54V200z"/>
<path class="st2" d="M83.27,312h7.94v-1.98h-2.56c-0.56,0-1.34,0.06-1.94,0.13c2.16-2.11,3.94-4.42,3.94-6.56
	c0-2.21-1.49-3.65-3.73-3.65c-1.62,0-2.67,0.62-3.76,1.79l1.28,1.28c0.61-0.66,1.31-1.22,2.18-1.22c1.14,0,1.78,0.72,1.78,1.92
	c0,1.82-1.9,4.05-5.12,6.93V312z M96.42,312.22c2.19,0,4.14-1.52,4.14-4.16c0-2.58-1.66-3.76-3.65-3.76c-0.54,0-0.94,0.11-1.42,0.34
	l0.22-2.51h4.3v-1.98h-6.34l-0.32,5.76l1.07,0.7c0.69-0.45,1.07-0.62,1.78-0.62c1.2,0,2,0.77,2,2.14c0,1.39-0.86,2.18-2.1,2.18
	c-1.1,0-1.94-0.54-2.61-1.2l-1.09,1.5C93.3,311.49,94.54,312.22,96.42,312.22z"/>
<path class="st3" d="M43.79,144.21c2.08,0,3.76-1.25,3.76-3.34c0-1.6-1.1-2.66-2.48-2.98v-0.06c1.23-0.46,2.08-1.41,2.08-2.83
	c0-1.86-1.44-2.94-3.41-2.94c-1.36,0-2.4,0.59-3.28,1.41l0.78,0.93c0.66-0.67,1.49-1.14,2.43-1.14c1.22,0,1.98,0.74,1.98,1.86
	c0,1.26-0.83,2.24-3.25,2.24v1.12c2.7,0,3.65,0.94,3.65,2.34c0,1.36-0.99,2.19-2.38,2.19c-1.33,0-2.22-0.62-2.91-1.34l-0.74,0.96
	C40.79,143.44,41.95,144.21,43.79,144.21z"/>
<path class="st3" d="M36.53,256h6.43v-1.22h-2.35v-10.53h-1.12c-0.64,0.38-1.39,0.66-2.43,0.85v0.93h2.08v8.75h-2.61V256z
	 M47.17,256h1.52c0.18-4.59,0.69-7.33,3.44-10.85v-0.9h-7.34v1.26h5.68C48.18,248.72,47.36,251.55,47.17,256z"/>
<path class="st3" d="M36.53,200h6.43v-1.22h-2.35v-10.53h-1.12c-0.64,0.38-1.39,0.66-2.43,0.85v0.93h2.08v8.75h-2.61V200z
	 M48.45,200.21c2.22,0,3.65-2.03,3.65-6.11c0-4.06-1.42-6.05-3.65-6.05c-2.24,0-3.66,1.97-3.66,6.05
	C44.78,198.18,46.21,200.21,48.45,200.21z M48.45,199.04c-1.34,0-2.24-1.49-2.24-4.94c0-3.42,0.9-4.88,2.24-4.88
	c1.33,0,2.22,1.46,2.22,4.88C50.67,197.55,49.78,199.04,48.45,199.04z"/>
<path class="st3" d="M35.83,312h7.38v-1.26h-3.25c-0.59,0-1.31,0.06-1.92,0.11c2.75-2.61,4.59-4.99,4.59-7.33
	c0-2.1-1.31-3.47-3.41-3.47c-1.49,0-2.5,0.69-3.46,1.73l0.85,0.83c0.64-0.77,1.47-1.36,2.43-1.36c1.46,0,2.16,0.98,2.16,2.32
	c0,2.02-1.7,4.35-5.38,7.57V312z M45.84,307.6l2.67-4c0.34-0.58,0.66-1.15,0.94-1.73h0.06c-0.03,0.61-0.08,1.55-0.08,2.13v3.6H45.84
	z M49.44,312h1.38v-3.23h1.55v-1.17h-1.55v-7.34H49.2l-4.88,7.55v0.96h5.12V312z"/>
<path class="st3" d="M39.35,368.21c2.08,0,3.76-1.25,3.76-3.34c0-1.6-1.1-2.66-2.48-2.98v-0.06c1.23-0.46,2.08-1.41,2.08-2.83
	c0-1.86-1.44-2.94-3.41-2.94c-1.36,0-2.4,0.59-3.28,1.41l0.78,0.93c0.66-0.67,1.49-1.14,2.43-1.14c1.22,0,1.98,0.74,1.98,1.86
	c0,1.26-0.83,2.24-3.25,2.24v1.12c2.7,0,3.65,0.94,3.65,2.34c0,1.36-0.99,2.19-2.38,2.19c-1.33,0-2.22-0.62-2.91-1.34l-0.74,0.96
	C36.36,367.44,37.51,368.21,39.35,368.21z M45.41,368h6.43v-1.22h-2.35v-10.53h-1.12c-0.64,0.38-1.39,0.66-2.43,0.85v0.93h2.08v8.75
	h-2.61V368z"/>
<path class="st3" d="M139.74,144.21c1.98,0,3.84-1.46,3.84-4.03c0-2.58-1.58-3.73-3.54-3.73c-0.7,0-1.22,0.18-1.74,0.46l0.29-3.39
	h4.43v-1.26h-5.71l-0.37,5.5l0.78,0.48c0.67-0.45,1.17-0.69,1.95-0.69c1.47,0,2.43,0.99,2.43,2.67c0,1.71-1.12,2.77-2.5,2.77
	c-1.36,0-2.21-0.62-2.88-1.3l-0.72,0.96C136.79,143.44,137.91,144.21,139.74,144.21z"/>
<path class="st3" d="M132.53,256h6.43v-1.22h-2.35v-10.53h-1.12c-0.64,0.38-1.39,0.66-2.43,0.85v0.93h2.08v8.75h-2.61V256z
	 M142.08,247.86c0-1.6,0.86-2.66,1.98-2.66c1.5,0,2.4,1.28,2.56,3.7c-0.75,1.1-1.65,1.57-2.45,1.57
	C142.78,250.46,142.08,249.44,142.08,247.86z M143.74,256.21c2.21,0,4.26-1.82,4.26-6.58c0-3.73-1.68-5.58-3.94-5.58
	c-1.82,0-3.36,1.54-3.36,3.81c0,2.43,1.28,3.7,3.23,3.7c0.98,0,1.98-0.56,2.7-1.44c-0.11,3.63-1.42,4.88-2.94,4.88
	c-0.75,0-1.47-0.34-1.95-0.9l-0.82,0.91C141.58,255.7,142.48,256.21,143.74,256.21z"/>
<path class="st3" d="M132.53,200h6.43v-1.22h-2.35v-10.53h-1.12c-0.64,0.38-1.39,0.66-2.43,0.85v0.93h2.08v8.75h-2.61V200z
	 M140.7,200h7.38v-1.26h-3.25c-0.59,0-1.31,0.06-1.92,0.11c2.75-2.61,4.59-4.99,4.59-7.33c0-2.1-1.31-3.47-3.41-3.47
	c-1.49,0-2.5,0.69-3.46,1.73l0.85,0.83c0.64-0.77,1.47-1.36,2.43-1.36c1.46,0,2.16,0.98,2.16,2.32c0,2.02-1.7,4.35-5.38,7.57V200z"
	/>
<path class="st3" d="M131.83,312h7.38v-1.26h-3.25c-0.59,0-1.31,0.06-1.92,0.11c2.75-2.61,4.59-4.99,4.59-7.33
	c0-2.1-1.31-3.47-3.41-3.47c-1.49,0-2.5,0.69-3.46,1.73l0.85,0.83c0.64-0.77,1.47-1.36,2.43-1.36c1.46,0,2.16,0.98,2.16,2.32
	c0,2.02-1.7,4.35-5.38,7.57V312z M144.69,305.81c1.42,0,2.13,1.01,2.13,2.59c0,1.6-0.88,2.67-2,2.67c-1.47,0-2.35-1.33-2.53-3.76
	C143.01,306.24,143.95,305.81,144.69,305.81z M144.82,312.21c1.82,0,3.36-1.54,3.36-3.81c0-2.45-1.26-3.68-3.25-3.68
	c-0.93,0-1.95,0.54-2.67,1.42c0.06-3.65,1.42-4.88,3.02-4.88c0.72,0,1.42,0.34,1.89,0.9l0.8-0.91c-0.64-0.69-1.52-1.2-2.74-1.2
	c-2.27,0-4.34,1.76-4.34,6.35C140.9,310.27,142.56,312.21,144.82,312.21z"/>
<path class="st3" d="M188.25,137.81c1.42,0,2.13,1.01,2.13,2.59c0,1.6-0.88,2.67-2,2.67c-1.47,0-2.35-1.33-2.53-3.76
	C186.57,138.24,187.51,137.81,188.25,137.81z M188.38,144.21c1.82,0,3.36-1.54,3.36-3.81c0-2.45-1.26-3.68-3.25-3.68
	c-0.93,0-1.95,0.54-2.67,1.42c0.06-3.65,1.42-4.88,3.02-4.88c0.72,0,1.42,0.34,1.89,0.9l0.8-0.91c-0.64-0.69-1.52-1.2-2.74-1.2
	c-2.27,0-4.34,1.76-4.34,6.35C184.46,142.27,186.12,144.21,188.38,144.21z"/>
<path class="st3" d="M179.83,256h7.38v-1.26h-3.25c-0.59,0-1.31,0.06-1.92,0.11c2.75-2.61,4.59-4.99,4.59-7.33
	c0-2.1-1.31-3.47-3.41-3.47c-1.49,0-2.5,0.69-3.46,1.73l0.85,0.83c0.64-0.77,1.47-1.36,2.43-1.36c1.46,0,2.16,0.98,2.16,2.32
	c0,2.02-1.7,4.35-5.38,7.57V256z M192.45,256.21c2.22,0,3.65-2.03,3.65-6.11c0-4.06-1.42-6.05-3.65-6.05
	c-2.24,0-3.66,1.97-3.66,6.05C188.78,254.18,190.21,256.21,192.45,256.21z M192.45,255.04c-1.34,0-2.24-1.49-2.24-4.94
	c0-3.42,0.9-4.88,2.24-4.88c1.33,0,2.22,1.46,2.22,4.88C194.67,253.55,193.78,255.04,192.45,255.04z"/>
<path class="st3" d="M180.53,200h6.43v-1.22h-2.35v-10.53h-1.12c-0.64,0.38-1.39,0.66-2.43,0.85v0.93h2.08v8.75h-2.61V200z
	 M192.22,200.21c2.08,0,3.76-1.25,3.76-3.34c0-1.6-1.1-2.66-2.48-2.98v-0.06c1.23-0.46,2.08-1.41,2.08-2.83
	c0-1.86-1.44-2.94-3.41-2.94c-1.36,0-2.4,0.59-3.28,1.41l0.78,0.93c0.66-0.67,1.49-1.14,2.43-1.14c1.22,0,1.98,0.74,1.98,1.86
	c0,1.26-0.83,2.24-3.25,2.24v1.12c2.7,0,3.65,0.94,3.65,2.34c0,1.36-0.99,2.19-2.38,2.19c-1.33,0-2.22-0.62-2.91-1.34l-0.74,0.96
	C189.23,199.44,190.38,200.21,192.22,200.21z"/>
<path class="st3" d="M179.83,312h7.38v-1.26h-3.25c-0.59,0-1.31,0.06-1.92,0.11c2.75-2.61,4.59-4.99,4.59-7.33
	c0-2.1-1.31-3.47-3.41-3.47c-1.49,0-2.5,0.69-3.46,1.73l0.85,0.83c0.64-0.77,1.47-1.36,2.43-1.36c1.46,0,2.16,0.98,2.16,2.32
	c0,2.02-1.7,4.35-5.38,7.57V312z M191.17,312h1.52c0.18-4.59,0.69-7.33,3.44-10.85v-0.9h-7.34v1.26h5.68
	C192.18,304.72,191.36,307.55,191.17,312z"/>
<path class="st2" d="M234.26,144h2.38c0.19-4.64,0.56-7.06,3.31-10.42v-1.44h-7.87v1.98h5.33
	C235.16,137.26,234.47,139.89,234.26,144z"/>
<path class="st3" d="M227.83,256h7.38v-1.26h-3.25c-0.59,0-1.31,0.06-1.92,0.11c2.75-2.61,4.59-4.99,4.59-7.33
	c0-2.1-1.31-3.47-3.41-3.47c-1.49,0-2.5,0.69-3.46,1.73l0.85,0.83c0.64-0.77,1.47-1.36,2.43-1.36c1.46,0,2.16,0.98,2.16,2.32
	c0,2.02-1.7,4.35-5.38,7.57V256z M237.41,256h6.43v-1.22h-2.35v-10.53h-1.12c-0.64,0.38-1.39,0.66-2.43,0.85v0.93h2.08v8.75h-2.61
	V256z"/>
<path class="st3" d="M227.83,312h7.38v-1.26h-3.25c-0.59,0-1.31,0.06-1.92,0.11c2.75-2.61,4.59-4.99,4.59-7.33
	c0-2.1-1.31-3.47-3.41-3.47c-1.49,0-2.5,0.69-3.46,1.73l0.85,0.83c0.64-0.77,1.47-1.36,2.43-1.36c1.46,0,2.16,0.98,2.16,2.32
	c0,2.02-1.7,4.35-5.38,7.57V312z M240.46,312.21c2.21,0,3.68-1.33,3.68-3.04c0-1.6-0.96-2.48-1.98-3.07v-0.08
	c0.7-0.54,1.57-1.6,1.57-2.83c0-1.81-1.22-3.09-3.22-3.09c-1.82,0-3.22,1.18-3.22,2.98c0,1.23,0.72,2.11,1.58,2.7v0.08
	c-1.07,0.58-2.16,1.66-2.16,3.23C236.72,310.9,238.3,312.21,240.46,312.21z M241.26,305.63c-1.38-0.54-2.64-1.15-2.64-2.56
	c0-1.14,0.78-1.9,1.87-1.9c1.26,0,1.98,0.94,1.98,2.1C242.48,304.13,242.06,304.93,241.26,305.63z M240.5,311.12
	c-1.41,0-2.45-0.91-2.45-2.16c0-1.12,0.66-2.05,1.6-2.66c1.66,0.67,3.1,1.26,3.1,2.83C242.75,310.3,241.84,311.12,240.5,311.12z"/>
<path class="st3" d="M228.53,200h6.43v-1.22h-2.35v-10.53h-1.12c-0.64,0.38-1.39,0.66-2.43,0.85v0.93h2.08v8.75h-2.61V200z
	 M237.84,195.6l2.67-4c0.34-0.58,0.66-1.15,0.94-1.73h0.06c-0.03,0.61-0.08,1.55-0.08,2.13v3.6H237.84z M241.44,200h1.38v-3.23h1.55
	v-1.17h-1.55v-7.34h-1.62l-4.88,7.55v0.96h5.12V200z"/>
<path class="st3" d="M280.97,88h6.43v-1.22h-2.35V76.26h-1.12c-0.64,0.38-1.39,0.66-2.43,0.85v0.93h2.08v8.75h-2.61V88z"/>
<path class="st3" d="M284.03,144.21c2.21,0,3.68-1.33,3.68-3.04c0-1.6-0.96-2.48-1.98-3.07v-0.08c0.7-0.54,1.57-1.6,1.57-2.83
	c0-1.81-1.22-3.09-3.22-3.09c-1.82,0-3.22,1.18-3.22,2.98c0,1.23,0.72,2.11,1.58,2.7v0.08c-1.07,0.58-2.16,1.66-2.16,3.23
	C280.28,142.9,281.87,144.21,284.03,144.21z M284.83,137.63c-1.38-0.54-2.64-1.15-2.64-2.56c0-1.14,0.78-1.9,1.87-1.9
	c1.26,0,1.98,0.94,1.98,2.1C286.04,136.13,285.63,136.93,284.83,137.63z M284.06,143.12c-1.41,0-2.45-0.91-2.45-2.16
	c0-1.12,0.66-2.05,1.6-2.66c1.66,0.67,3.1,1.26,3.1,2.83C286.32,142.3,285.4,143.12,284.06,143.12z"/>
<path class="st3" d="M275.83,256h7.38v-1.26h-3.25c-0.59,0-1.31,0.06-1.92,0.11c2.75-2.61,4.59-4.99,4.59-7.33
	c0-2.1-1.31-3.47-3.41-3.47c-1.49,0-2.5,0.69-3.46,1.73l0.85,0.83c0.64-0.77,1.47-1.36,2.43-1.36c1.46,0,2.16,0.98,2.16,2.32
	c0,2.02-1.7,4.35-5.38,7.57V256z M284.7,256h7.38v-1.26h-3.25c-0.59,0-1.31,0.06-1.92,0.11c2.75-2.61,4.59-4.99,4.59-7.33
	c0-2.1-1.31-3.47-3.41-3.47c-1.49,0-2.5,0.69-3.46,1.73l0.85,0.83c0.64-0.77,1.47-1.36,2.43-1.36c1.46,0,2.16,0.98,2.16,2.32
	c0,2.02-1.7,4.35-5.38,7.57V256z"/>
<path class="st3" d="M275.83,312h7.38v-1.26h-3.25c-0.59,0-1.31,0.06-1.92,0.11c2.75-2.61,4.59-4.99,4.59-7.33
	c0-2.1-1.31-3.47-3.41-3.47c-1.49,0-2.5,0.69-3.46,1.73l0.85,0.83c0.64-0.77,1.47-1.36,2.43-1.36c1.46,0,2.16,0.98,2.16,2.32
	c0,2.02-1.7,4.35-5.38,7.57V312z M286.08,303.86c0-1.6,0.86-2.66,1.98-2.66c1.5,0,2.4,1.28,2.56,3.7c-0.75,1.1-1.65,1.57-2.45,1.57
	C286.78,306.46,286.08,305.44,286.08,303.86z M287.74,312.21c2.21,0,4.26-1.82,4.26-6.58c0-3.73-1.68-5.58-3.94-5.58
	c-1.82,0-3.36,1.54-3.36,3.81c0,2.43,1.28,3.7,3.23,3.7c0.98,0,1.98-0.56,2.7-1.44c-0.11,3.63-1.42,4.88-2.94,4.88
	c-0.75,0-1.47-0.34-1.95-0.9l-0.82,0.91C285.58,311.7,286.48,312.21,287.74,312.21z"/>
<path class="st3" d="M276.53,200h6.43v-1.22h-2.35v-10.53h-1.12c-0.64,0.38-1.39,0.66-2.43,0.85v0.93h2.08v8.75h-2.61V200z
	 M288.18,200.21c1.98,0,3.84-1.46,3.84-4.03c0-2.58-1.58-3.73-3.54-3.73c-0.7,0-1.22,0.18-1.74,0.46l0.29-3.39h4.43v-1.26h-5.71
	l-0.37,5.5l0.78,0.48c0.67-0.45,1.17-0.69,1.95-0.69c1.47,0,2.43,0.99,2.43,2.67c0,1.71-1.12,2.77-2.5,2.77
	c-1.36,0-2.21-0.62-2.88-1.3l-0.72,0.96C285.23,199.44,286.35,200.21,288.18,200.21z"/>
<path class="st3" d="M328.27,88h7.38v-1.26h-3.25c-0.59,0-1.31,0.06-1.92,0.11c2.75-2.61,4.59-4.99,4.59-7.33
	c0-2.1-1.31-3.47-3.41-3.47c-1.49,0-2.5,0.69-3.46,1.73l0.85,0.83c0.64-0.77,1.47-1.36,2.43-1.36c1.46,0,2.16,0.98,2.16,2.32
	c0,2.02-1.7,4.35-5.38,7.57V88z"/>
<path class="st3" d="M329.64,135.86c0-1.6,0.86-2.66,1.98-2.66c1.5,0,2.4,1.28,2.56,3.7c-0.75,1.1-1.65,1.57-2.45,1.57
	C330.35,138.46,329.64,137.44,329.64,135.86z M331.31,144.21c2.21,0,4.26-1.82,4.26-6.58c0-3.73-1.68-5.58-3.93-5.58
	c-1.82,0-3.36,1.54-3.36,3.81c0,2.43,1.28,3.7,3.23,3.7c0.98,0,1.98-0.56,2.7-1.44c-0.11,3.63-1.42,4.88-2.94,4.88
	c-0.75,0-1.47-0.34-1.95-0.9l-0.82,0.91C329.15,143.7,330.04,144.21,331.31,144.21z"/>
<path class="st3" d="M323.83,256h7.38v-1.26h-3.25c-0.59,0-1.31,0.06-1.92,0.11c2.75-2.61,4.59-4.99,4.59-7.33
	c0-2.1-1.31-3.47-3.41-3.47c-1.49,0-2.5,0.69-3.46,1.73l0.85,0.83c0.64-0.77,1.47-1.36,2.43-1.36c1.46,0,2.16,0.98,2.16,2.32
	c0,2.02-1.7,4.35-5.38,7.57V256z M336.22,256.21c2.08,0,3.76-1.25,3.76-3.34c0-1.6-1.1-2.66-2.48-2.98v-0.06
	c1.23-0.46,2.08-1.41,2.08-2.83c0-1.86-1.44-2.94-3.41-2.94c-1.36,0-2.4,0.59-3.28,1.41l0.78,0.93c0.66-0.67,1.49-1.14,2.43-1.14
	c1.22,0,1.98,0.74,1.98,1.86c0,1.26-0.83,2.24-3.25,2.24v1.12c2.7,0,3.65,0.94,3.65,2.34c0,1.36-0.99,2.19-2.38,2.19
	c-1.33,0-2.22-0.62-2.91-1.34l-0.74,0.96C333.23,255.44,334.38,256.21,336.22,256.21z"/>
<path class="st3" d="M327.35,312.21c2.08,0,3.76-1.25,3.76-3.34c0-1.6-1.1-2.66-2.48-2.98v-0.06c1.23-0.46,2.08-1.41,2.08-2.83
	c0-1.86-1.44-2.94-3.41-2.94c-1.36,0-2.4,0.59-3.28,1.41l0.78,0.93c0.66-0.67,1.49-1.14,2.43-1.14c1.22,0,1.98,0.74,1.98,1.86
	c0,1.26-0.83,2.24-3.25,2.24v1.12c2.7,0,3.65,0.94,3.65,2.34c0,1.36-0.99,2.19-2.38,2.19c-1.33,0-2.22-0.62-2.91-1.34l-0.74,0.96
	C324.36,311.44,325.51,312.21,327.35,312.21z M336.45,312.21c2.22,0,3.65-2.03,3.65-6.11c0-4.06-1.42-6.05-3.65-6.05
	c-2.24,0-3.66,1.97-3.66,6.05C332.78,310.18,334.21,312.21,336.45,312.21z M336.45,311.04c-1.34,0-2.24-1.49-2.24-4.94
	c0-3.42,0.9-4.88,2.24-4.88c1.33,0,2.22,1.46,2.22,4.88C338.67,309.55,337.78,311.04,336.45,311.04z"/>
<path class="st3" d="M324.53,200h6.43v-1.22h-2.35v-10.53h-1.12c-0.64,0.38-1.39,0.66-2.43,0.85v0.93h2.08v8.75h-2.61V200z
	 M336.69,193.81c1.42,0,2.13,1.01,2.13,2.59c0,1.6-0.88,2.67-2,2.67c-1.47,0-2.35-1.33-2.53-3.76
	C335.01,194.24,335.95,193.81,336.69,193.81z M336.82,200.21c1.82,0,3.36-1.54,3.36-3.81c0-2.45-1.26-3.68-3.25-3.68
	c-0.93,0-1.95,0.54-2.67,1.42c0.06-3.65,1.42-4.88,3.02-4.88c0.72,0,1.42,0.34,1.89,0.9l0.8-0.91c-0.64-0.69-1.52-1.2-2.74-1.2
	c-2.27,0-4.34,1.76-4.34,6.35C332.9,198.27,334.56,200.21,336.82,200.21z"/>
<path class="st2" d="M89.91,139.14l1.84-2.94c0.34-0.64,0.66-1.3,0.94-1.94h0.06c-0.03,0.7-0.08,1.78-0.08,2.46v2.42H89.91z
	 M92.68,144h2.19v-3.07h1.39v-1.79h-1.39v-6.99h-2.83l-4.42,7.18v1.6h5.06V144z"/>
<path class="st3" d="M93.07,33.66v0.86h2.85v0.75h1.31v-8.43h-1.31v6.82H93.07z M90.08,28.03c1.41,0,2.3,0.48,2.3,1.25
	c0,0.74-0.9,1.23-2.3,1.23c-1.39,0-2.3-0.5-2.3-1.23C87.78,28.51,88.69,28.03,90.08,28.03z M90.08,31.41c2.13,0,3.54-0.82,3.54-2.13
	c0-1.34-1.41-2.16-3.54-2.16c-2.13,0-3.54,0.82-3.54,2.16C86.54,30.59,87.95,31.41,90.08,31.41z M89.34,35.33h1.31v-2.21
	c1.39-0.08,2.82-0.19,4.21-0.38l-0.08-0.86c-3.07,0.35-6.58,0.37-9.34,0.37l0.16,0.99c1.15,0,2.42-0.02,3.74-0.05V35.33z
	 M88.94,40.05V38.8h8.29v-2.99h-9.62v0.94h8.34v1.15h-8.3v3.12h10.08v-0.98H88.94z"/>
<path class="st3" d="M230.93,37.71h8.62v3.49h1.31v-4.54h-9.94V37.71z M232.43,28.46h7.07v2.78h-7.07V28.46z M236.64,34.11v-1.82
	h4.16v-4.86h-9.65v4.86h4.18v1.82h-5.86v1.06h12.99v-1.06H236.64z"/>
<path class="st3" d="M49.26,26.83h-1.31v7.36h1.31V26.83z M39.09,30.54c0-1.25,1.04-2.13,2.43-2.13c1.41,0,2.43,0.88,2.43,2.13
	c0,1.23-1.02,2.11-2.43,2.11C40.13,32.66,39.09,31.78,39.09,30.54z M45.23,30.54c0-1.9-1.57-3.2-3.71-3.2s-3.7,1.3-3.7,3.2
	c0,1.89,1.55,3.17,3.7,3.17S45.23,32.43,45.23,30.54z M41.3,39.95v-1.58h7.97V34.9h-9.3v1.04h8v1.46H40v3.6h9.74v-1.04H41.3z"/>
<path class="st3" d="M142.15,28.58h-3.62v-1.73h-1.31v1.73h-3.65v1.04h8.58V28.58z M135.73,33.12c0-0.99,0.86-1.65,2.14-1.65
	s2.14,0.66,2.14,1.65s-0.86,1.63-2.14,1.63S135.73,34.11,135.73,33.12z M138.53,35.74c1.65-0.21,2.74-1.2,2.74-2.62
	c0-1.62-1.39-2.66-3.39-2.66s-3.39,1.04-3.39,2.66c0,1.42,1.09,2.42,2.74,2.62v1.57c-1.39,0.05-2.74,0.05-3.89,0.05l0.18,1.1
	c2.51,0,5.89-0.03,8.96-0.58l-0.08-0.98c-1.23,0.19-2.56,0.29-3.86,0.35V35.74z M146.79,32.93h-2.24v-6.1h-1.31v14.35h1.31v-7.15
	h2.24V32.93z"/>
<path class="st3" d="M280.37,36.94h7.22v2.99h-7.22V36.94z M279.09,40.99h9.79v-5.1h-9.79V40.99z M288.45,32.88
	c0.38-1.79,0.38-3.1,0.38-4.22V27.6h-9.7v1.06h8.4c0,1.12,0,2.43-0.42,4.22h-9.65v1.06h13.04v-1.06H288.45z"/>
<path class="st3" d="M193.84,32.3c-2.61-0.38-5.17-2.16-5.17-4.16v-0.8h-1.38v0.8c0,2.05-2.53,3.78-5.14,4.16l0.53,1.06
	c2.24-0.38,4.4-1.62,5.3-3.36c0.93,1.73,3.09,2.98,5.31,3.36L193.84,32.3z M194.46,34.91h-12.96V36h5.79v5.2h1.31V36h5.87
	L194.46,34.91z"/>
<path class="st3" d="M332.64,38.32v-2.96h4.38v-1.07h-8.54v-2.16h8.08v-1.04h-8.08v-2.02h8.4V28h-9.73v7.36h4.18v2.96h-5.86v1.07
	h13.04v-1.07H332.64z"/>
</svg>
