<svg width="16" height="16" viewBox="0 0 16 16" fill="none" xmlns="http://www.w3.org/2000/svg">
<path d="M14 6.66669C14 11.3334 8 15.3334 8 15.3334C8 15.3334 2 11.3334 2 6.66669C2 5.07539 2.63214 3.54926 3.75736 2.42405C4.88258 1.29883 6.4087 0.666687 8 0.666687C9.5913 0.666687 11.1174 1.29883 12.2426 2.42405C13.3679 3.54926 14 5.07539 14 6.66669Z" stroke="#333333" stroke-linecap="round" stroke-linejoin="round"/>
<path d="M8 8.66669C9.10457 8.66669 10 7.77126 10 6.66669C10 5.56212 9.10457 4.66669 8 4.66669C6.89543 4.66669 6 5.56212 6 6.66669C6 7.77126 6.89543 8.66669 8 8.66669Z" stroke="#333333" stroke-linecap="round" stroke-linejoin="round"/>
</svg>
